<?xml version="1.0" encoding="UTF-8" standalone="no"?>
<!-- Created with Inkscape (http://www.inkscape.org/) -->

<svg
   xmlns:dc="http://purl.org/dc/elements/1.1/"
   xmlns:cc="http://creativecommons.org/ns#"
   xmlns:rdf="http://www.w3.org/1999/02/22-rdf-syntax-ns#"
   xmlns:svg="http://www.w3.org/2000/svg"
   xmlns="http://www.w3.org/2000/svg"
   xmlns:sodipodi="http://sodipodi.sourceforge.net/DTD/sodipodi-0.dtd"
   xmlns:inkscape="http://www.inkscape.org/namespaces/inkscape"
   id="svg2"
   version="1.1"
   inkscape:version="0.48.4 r9939"
   width="128"
   height="128"
   sodipodi:docname="icon.svg"
   inkscape:export-filename="icon.png"
   inkscape:export-xdpi="90"
   inkscape:export-ydpi="90">
  <metadata
     id="metadata8">
    <rdf:RDF>
      <cc:Work
         rdf:about="">
        <dc:format>image/svg+xml</dc:format>
        <dc:type
           rdf:resource="http://purl.org/dc/dcmitype/StillImage" />
        <dc:title />
      </cc:Work>
    </rdf:RDF>
  </metadata>
  <defs
     id="defs6" />
  <sodipodi:namedview
     pagecolor="#ffffff"
     bordercolor="#666666"
     borderopacity="1"
     objecttolerance="10"
     gridtolerance="10"
     guidetolerance="10"
     inkscape:pageopacity="0"
     inkscape:pageshadow="2"
     inkscape:window-width="1861"
     inkscape:window-height="1176"
     id="namedview4"
     showgrid="false"
     inkscape:zoom="2.6074563"
     inkscape:cx="-28.576904"
     inkscape:cy="33.994709"
     inkscape:window-x="59"
     inkscape:window-y="24"
     inkscape:window-maximized="1"
     inkscape:current-layer="svg2" />
  <path
     id="path2985"
     d="m 12.75061,18.225313 c 0.01197,-0.0048 0.01792,-0.0093 0.01792,-0.01255 0,-0.02092 -0.0084,-0.0093 -0.01792,0.01255 z m 30.302939,35.384311 c 0,0 -0.570914,-0.118964 -0.595723,-0.190402 -0.02364,-0.07115 -1.000132,-0.9284 -1.022547,-0.904487 -0.02537,0.02334 -0.406216,-0.382597 -0.454035,-0.262142 -0.04661,0.118964 -0.785523,0.118964 -0.785523,0.118964 l -0.785824,-0.191893 c 0,0 -0.332376,0.239719 -0.26154,0.14317 0.07145,-0.09505 0.02364,-0.666257 0,-0.570303 -0.02364,0.09415 -1.191129,-0.500665 -1.191129,-0.500665 l -0.405614,0.357185 v -0.452537 l -0.617543,-0.380511 0.07206,-0.500363 -0.287847,-0.238229 c 0,0 -0.04631,0.07115 -0.07025,0.02394 C 36.624394,50.014141 36.45733,49.06152 36.45733,49.06152 L 35.551651,48.322931 34.457357,48.27512 33.45663,47.726034 33.242314,47.22686 c 0,0 -0.571802,-0.260946 -0.571802,-0.332678 0,-0.07115 -0.164998,-0.02334 -0.214022,-0.04811 -0.04631,-0.02304 -0.02244,-0.260643 -0.02244,-0.260643 l -0.263935,-0.215807 -0.09415,-0.064 -0.232846,-0.07055 -0.142575,-0.199068 c 0,0 0.517997,-0.231355 0.464493,-0.212817 -0.05233,0.01671 -1.160048,0.177248 -1.160048,0.177248 l -0.107007,0.213713 -0.518299,-0.267216 -0.874888,-0.05414 c 0,0 -0.626209,-0.249289 -0.608275,-0.320426 0.01882,-0.07175 -0.196079,-0.339559 -0.196079,-0.339559 0,0 -0.142877,0.339559 -0.178747,0.375127 -0.03524,0.03554 -0.481239,0.410697 -0.481239,0.410697 l 0.03441,0.572397 -0.303094,-0.322814 0.214918,-0.303689 v -0.428029 c 0,-0.05474 0.267819,-0.178746 0.267819,-0.178746 L 28.1472,45.126395 c 0,0 -0.320728,0.08908 -0.320728,0.142877 0,0.05323 -0.428624,0.303094 -0.428624,0.303094 l -0.5186,0.19608 h -0.231949 c 0,0 -0.231656,0.374224 -0.286951,0.393062 -0.05293,0.01822 -0.03381,0.358082 -0.03381,0.358082 0,0 -0.572999,0.641448 -0.608869,0.570311 -0.03554,-0.07115 -0.641449,-0.570311 -0.641449,-0.570311 l -0.715876,0.08788 -0.410094,0.215212 -0.500371,-0.339559 -0.39246,-0.607077 0.03674,-0.714077 0.213721,-0.787021 0.08907,-0.5168 -0.535939,-0.393959 c 0,0 -1.089205,0.08937 -1.089205,0.03584 0,-0.05263 -0.590339,0.01882 -0.571809,-0.03584 0.01702,-0.05293 0.214315,-0.392159 0.214315,-0.446566 0,-0.05376 0.14348,-0.463899 0.14348,-0.463899 l 0.232243,-0.463898 0.303388,-0.891333 0.177851,-0.30518 -0.892229,-0.05323 -0.536234,0.214015 -0.303387,0.893719 -1.518438,0.410403 -0.374827,-0.28546 c 0,0 -0.03584,0.160812 -0.01672,0.07145 0.01672,-0.08907 -0.464795,-0.715274 -0.464795,-0.715274 l -0.232552,-0.874 c 0,0 0.607973,-1.805081 0.588849,-1.768315 -0.01762,0.03494 0.01912,-0.662079 0.01912,-0.662079 l 1.910597,-1.249414 0.731425,0.107007 0.178446,0.178446 0.447454,-0.07266 0.446265,-0.44567 0.57001,0.07469 0.552979,-0.106706 0.340154,0.375421 0.498865,-0.196079 0.26812,0.286349 0.162009,0.177248 v 0.304585 l -0.124942,0.285152 0.124942,0.643248 0.356892,0.500665 0.231949,0.08877 0.285755,-0.785523 -0.05414,-0.732313 -0.124641,-0.590934 v -0.42833 l 0.732916,-0.891032 0.945431,-0.679712 0.750248,-0.428624 0.660882,-0.714084 -0.03554,-0.678817 0.287245,-0.05293 0.283059,-0.606775 0.286055,0.0335 0.554763,-0.695848 0.927504,-0.320427 0.572698,-0.106706 0.178747,-0.196381 -0.214316,-0.178445 0.445964,-0.662079 1.411431,-0.553566 0.857857,-0.249885 -0.697647,0.44686 0.142877,0.338656 0.518004,-0.142576 0.375422,-0.231648 0.981903,-0.267518 c 0,0 0.23344,-0.393658 0.196675,-0.304284 -0.03433,0.08907 0.500664,-0.08937 0.500664,-0.08937 l -0.106706,-0.21491 0.03554,-0.285461 -0.285152,0.107309 -0.430725,0.4642 -0.695547,-0.03411 -0.320728,-0.483325 0.303388,-0.410696 c 0,0 0.303095,-0.607371 0.285453,-0.570605 -0.01822,0.03464 -0.481532,-0.14348 -0.481532,-0.14348 l -0.697046,0.248989 c -0.07115,0 -0.732019,0.393356 -0.714679,0.340154 0.01822,-0.05353 -0.339559,0.19638 -0.339559,0.19638 l 0.910465,-0.731123 0.375723,-0.05436 0.428925,-0.393657 h 2.053775 l 0.696744,-0.143171 0.928099,-0.499475 0.07266,0.08967 -0.393356,0.374231 -0.482436,0.500364 -0.46539,0.499166 -0.231655,0.304291 0.73232,0.03554 c 0,0 0.570906,0.01431 0.625306,0 0.07145,-0.01792 0.08907,0.249583 0.08907,0.249583 l 0.303094,-0.214014 0.161701,0.410696 0.536241,-0.410696 -0.161708,-0.464501 0.143773,-0.42952 -0.625313,0.01912 v -0.232544 c 0,0 -0.231649,-0.267819 -0.249885,-0.232552 -0.01852,0.03614 0.356892,-0.302785 0.338663,-0.267216 -0.01762,0.03584 -0.161407,-0.178145 -0.161407,-0.178145 l 0.430122,-0.537431 -0.214014,-0.606181 -0.07266,-0.302793 -0.553867,-0.268113 -0.196087,-0.268421 -0.250781,-0.196078 0.197277,-0.464797 -0.08967,-0.338958 c 0,0 -0.159916,-1.10774 -0.177851,-1.072468 -0.01882,0.03616 -0.751445,0.607971 -0.751445,0.607971 l -0.748757,0.375723 -0.394252,-0.339556 0.03704,-0.447759 0.339258,-0.321023 -0.554763,-0.178446 -0.03554,-0.142876 c 0,0 -0.499768,-0.500067 -0.535043,-0.464797 -0.03584,0.03707 -0.160812,0.162007 -0.160812,0.162007 l -1.179145,-0.108788 -0.410395,0.714979 -0.08907,0.374826 c 0,0 -0.645936,0.646232 -0.724843,0.696148 0.04721,-0.01375 0.349415,0.286949 0.349415,0.286949 l -0.268716,0.641748 -1.017765,0.589439 -0.499174,0.07236 c 0,0 -0.304284,1.108042 -0.286349,1.178879 0.01762,0.07206 -0.410395,0.267224 -0.410395,0.267224 l -0.30369,0.214609 -0.125536,-0.392159 c 0,0 -0.136899,-0.300105 -0.191299,-0.376023 0.0798,0.0329 0.369744,0.07145 0.369744,0.07145 l 0.05436,-0.25078 -0.286349,0.01852 0.125537,-0.41099 0.267819,-0.44567 -0.929295,-0.07176 -0.212223,-0.250479 -0.465691,-0.07174 -0.03674,-0.196977 -0.321323,-0.195783 -0.393356,-0.178446 -0.427735,0.0535 -0.01822,-0.374229 0.1091,-0.357191 -0.427735,-0.07114 c 0,0 0.750248,-0.768782 0.73232,-0.732914 -0.01912,0.03557 2.106376,-1.054833 2.106376,-1.054833 l 0.25078,-0.266623 0.410094,-0.03677 0.892831,-0.409798 0.678809,-0.464198 0.07145,0.03587 -0.5168,0.481835 -0.142877,0.177549 -0.410998,0.196978 0.375422,0.0532 -0.05466,0.215211 0.411593,-0.07174 0.410094,-0.339556 0.322813,0.108204 0.143179,0.159316 0.445662,-0.01794 -0.01792,-0.338957 -0.695555,-0.49947 -0.162604,-0.160512 -0.07055,-0.179043 0.302492,0.03707 0.251977,0.214015 0.267217,-0.269014 0.535639,-0.07024 0.535638,-0.376619 -0.03471,-0.231651 0.410094,-0.392462 -0.268715,-0.285155 0.71498,-0.01794 0.623815,0.01794 c 0,0 0.304585,-0.142577 0.35839,-0.0535 0.05376,0.08907 0.517703,0.427733 0.517703,0.427733 l -0.178453,0.16081 -0.733209,0.09027 -0.178446,0.355995 0.53713,0.07233 0.4098,-0.42833 0.445964,-0.03617 0.07175,0.427732 c 0,0 -0.499467,0.286351 -0.570612,0.303986 -0.07145,0.01913 -0.375722,0.160512 -0.375722,0.160512 l -0.01792,0.322518 -0.482128,0.05291 -0.499768,-0.08848 -0.231656,0.01734 -0.375722,0.303089 0.303689,0.267819 c 0,0 0.44686,-0.178447 0.517997,-0.231652 0.07115,-0.0532 0.303388,-0.161109 0.356598,-0.07114 0.05353,0.08907 0.356289,0.338958 0.356289,0.338958 l 0.251977,0.483626 0.23195,0.07084 0.713489,0.23195 c 0,0 0.500665,0.125241 0.500665,0.160212 0,0.03587 -0.05233,-0.303089 -0.05233,-0.303089 L 36.72003,21.448576 c 0,0 -0.01641,-0.124943 0.107007,-0.09027 0.126441,0.03557 0.430423,0.302791 0.430423,0.302791 0.05263,0.01794 0.410396,0.234042 0.410396,0.234042 l 0.142583,-0.393359 0.321022,-0.196679 -0.124046,-0.232248 -0.179049,-0.195783 -0.196079,-0.232248 0.01732,-0.26752 c 0,0 0.05383,-0.03707 0.107309,-0.07144 0.05323,-0.03527 0.214014,-0.160511 0.250178,-0.09027 0.03494,0.07144 0.393657,0.536234 0.393657,0.536234 l 0.337767,0.07084 0.161701,-0.26722 c 0,0 0.44567,-0.0541 0.44567,-0.03587 0,0.01794 0.03584,-0.214016 0.03584,-0.214016 l 0.411291,-0.106709 -0.588841,-0.519496 -0.321022,-0.161109 -0.251081,0.07174 -0.230459,-0.267818 0.24929,-0.231352 0.107903,-0.322219 -0.286048,-0.285454 -0.446566,-0.08907 -0.108205,-0.233145 c 0,0 -0.374231,-0.0532 -0.428029,-0.01824 -0.05414,0.03707 -0.321624,-0.320724 -0.321624,-0.320724 l -0.23225,-0.303089 c -0.03614,-0.01824 -0.160805,-0.144072 -0.23195,-0.125241 -0.07266,0.01794 -0.821686,0.03557 -0.821686,0.03557 l -0.178446,0.05381 -0.231648,-0.179342 -0.929597,0.232846 -0.481532,0.375125 c 0,0 -0.03531,-0.214614 0,-0.267818 0.03471,-0.0535 0.374224,-0.249885 0.428028,-0.285454 0.05353,-0.03557 -0.410395,-0.0544 -0.410395,-0.0544 0,0 -0.857857,0.286351 -0.893426,0.339854 -0.03554,0.0532 -0.696744,0.570908 -0.696744,0.570908 l 0.01913,0.428928 0.606474,0.08997 0.23195,0.05231 -0.160812,0.143773 -0.124641,0.26752 -0.39246,0.214314 -0.483333,0.356593 -0.410696,0.160512 -0.07085,-0.285155 0.356891,-0.214315 c 0,0 -0.07145,-0.445666 -0.107308,-0.410396 -0.03554,0.03587 -0.410094,-0.01763 -0.42833,0.03587 -0.01732,0.05381 0.01822,-0.338659 0.01822,-0.338659 l -0.01822,-0.375723 -0.08907,-0.286649 c 0,0 0.303982,-0.249585 0.35659,-0.267221 0.05383,-0.01794 0.625313,-0.0538 0.625313,-0.0538 l 0.91106,-0.517703 -0.750549,-0.03497 c 0,0 -0.695555,0.01704 -0.732019,0.08937 -0.03584,0.07144 -0.499166,0.552973 -0.499166,0.552973 l -0.286056,0.214315 -0.946628,0.590336 -0.03614,0.410097 -0.39246,-0.07114 -0.285152,-0.0538 -0.71349,0.285454 v 0.39276 l -1.305914,0.07233 c 0,0 -0.624109,-0.09027 -0.624109,-0.178445 0,-0.09027 -0.231949,-0.268417 -0.303086,-0.268417 -0.07266,0 -0.876094,0.249884 -0.876094,0.249884 l -0.03554,0.249585 -0.928694,-0.05261 c 0,0 -0.767588,0.14168 -0.749653,0.07114 0.01792,-0.07114 -0.411291,-0.03616 -0.411291,-0.03616 l 0.642939,-0.285753 -0.445662,-0.214314 -0.804949,-0.124643 -0.570913,-0.178445 -0.641743,0.08937 -0.07145,-0.267519 -0.572706,0.231352 -0.160812,-0.375125 -0.39246,0.179044 c 0,0 -1.464332,0.303388 -1.536072,0.321023 -0.07085,0.01824 -0.427727,-0.142876 -0.427727,-0.142876 l -0.448057,0.214015 -0.856066,0.0535 -0.340154,-0.249585 -0.696149,-0.142579 -0.768183,0.03557 -1.429659,-0.232847 c 0,0 -0.82079,-0.124942 -0.767287,-0.143773 0.05353,-0.01794 -0.44567,-0.142875 -0.44567,-0.142875 0,0 0.02003,-0.05948 0.03554,-0.09416 -0.175156,0.07413 -1.571633,0.30817 -1.571633,0.30817 L 9.308941,19.14345 8.0762647,19.393036 c 0,0 0.035539,0.321322 0.052931,0.374527 0.018221,0.0547 0.1252433,0.410993 0.1252433,0.410993 l -0.3389566,0.07144 H 7.5567992 l 0.1802378,-0.249586 -1.8236179,0.499769 0.037346,0.19638 -0.1258382,0.232249 0.5715084,0.0535 0.4827297,0.0535 c 0,0 0.2678192,-0.160213 0.2678192,-0.106708 0,0.0535 -0.1428771,0.463302 -0.1428771,0.463302 l -0.5532722,0.03587 c -0.035539,-0.0535 -0.3219177,0.01883 -0.3219177,0.01883 0,0 -0.3757225,0.230456 -0.3933637,0.178445 -0.01792,-0.0535 -0.7490507,0.124943 -0.7490507,0.124943 l -0.8405172,0.482433 -0.320728,0.481833 -0.035539,0.356593 0.625012,-0.106111 -0.3577951,0.482731 0.4109975,-0.01883 c 0,0 0.4827297,0 0.5182984,0.07264 0.036141,0.07144 0.2495831,0.03587 0.2495831,0.07144 0,0.03616 -4.25042018,1.678646 -4.28658369,1.625443 -0.0301927,-0.05474 -0.65460234,0.28516 -0.65460234,0.28516 0,0 0.82048913,-0.142584 0.87518993,-0.142584 0.053233,0 1.2670553,-0.286349 1.2670553,-0.286349 l 0.5718096,-0.160812 c 0,0 1.2326763,-0.356891 1.2491204,-0.410694 0.018221,-0.0541 0.8760859,-0.500366 0.9295895,-0.500366 0.053835,0 0.3392578,-0.124643 0.3577876,-0.05291 0.017016,0.07114 1.232089,-0.320724 1.232089,-0.320724 0,0 0.4280289,-0.304583 0.3933562,-0.358087 -0.037044,-0.0535 -0.286349,-0.196381 -0.2149104,-0.213717 0.071152,-0.01824 0.7131807,-0.108204 0.7131807,-0.108204 0,0 0.9651658,-0.392162 0.947532,-0.339256 -0.01792,0.0541 -0.9822047,0.697643 -0.9822047,0.697643 l 1.3755609,-0.268416 0.5541683,-0.232847 c 0,0 0.4638992,-0.214015 0.4283301,-0.160213 -0.03584,0.0535 0.5359401,0.213717 0.5359401,0.267221 0,0.0535 1.19591,0.232847 1.19591,0.232847 l 0.357494,0.535935 -0.07236,0.69585 -0.03531,0.876083 0.642646,-0.07175 -0.159909,0.571207 0.03674,0.947223 c 0,0 0.03441,0.338957 0.03441,0.39246 0,0.05353 -0.50007,-0.106706 -0.50007,-0.106706 0,0 -0.07175,0.410395 -0.01822,0.463598 0.05557,0.05353 0.644136,0.642947 0.644136,0.642947 l -0.196681,0.250479 -0.447455,1.107147 -1.053643,1.213845 -0.177844,0.662373 -0.518306,0.570612 0.08937,0.41099 c 0,0 -0.142877,0.286357 -0.10581,0.321624 0.03433,0.03524 0.249289,1.982337 0.249289,1.982337 l 0.750549,0.463899 0.195779,0.357486 0.107308,1.464332 0.32072,0.660581 -0.35659,0.250185 0.410395,0.570311 0.161113,0.01882 0.322513,0.374224 -0.125838,0.500665 0.338663,0.267518 0.322219,0.500371 0.05376,0.249583 0.30399,-0.303087 -0.30399,-0.625012 c 0,0 -0.214308,-0.465397 -0.196373,-0.571207 0.01792,-0.107602 -0.285159,-0.911361 -0.285159,-0.911361 0,0 -0.287245,-0.607672 -0.250479,-0.660874 0.03463,-0.05414 -0.215513,-0.410102 -0.215513,-0.410102 l 0.125838,-0.732012 0.518005,0.107008 c 0,0 0.08937,0.677318 0.08937,0.749946 0,0.07115 0.125236,0.50007 0.125236,0.50007 l 0.678214,0.945138 -0.106405,0.483031 1.302926,1.553404 -0.01792,0.625607 -0.196682,0.302793 0.107007,0.42952 1.090108,0.803457 0.178145,-0.03524 0.321021,0.321616 1.178285,0.589737 0.589736,0.143179 0.697641,-0.214911 0.445971,0.214911 0.678809,0.785522 0.696451,0.177844 0.713482,0.251081 h 0.341049 l 0.08937,0.409801 c 0,0 0.321323,0.411291 0.392761,0.464794 0.07085,0.05353 0.01792,0.518299 0.01792,0.518299 l 0.303087,0.159615 0.357486,0.375722 0.231957,0.215212 0.250781,0.285159 0.160209,-0.107007 0.321624,0.08877 0.463297,0.429528 0.303689,-0.179643 -0.08728,-0.338655 0.28336,-0.285461 h 0.250781 l 0.268421,0.213721 -0.01822,0.250185 0.321323,0.517696 0.01822,1.446699 -0.285754,0.465095 -0.393657,0.26782 -0.01672,0.427434 -0.411592,0.16051 -0.160511,0.571803 -0.250486,0.50037 0.05353,0.428029 0.357795,0.321624 -0.322226,0.34105 -0.231347,0.338354 0.212516,0.675527 c 0,0 0.106714,0.340154 0.106714,0.30399 0,-0.03554 0.341049,0.23344 0.341049,0.23344 l 0.624711,1.248526 0.606174,0.876688 c 0,0 0.882071,1.777584 0.900006,1.791633 0.266321,0.195779 2.209799,1.595547 2.209799,1.595547 l 0.331488,1.738129 0.09684,3.666662 0.285152,1.049155 -0.120154,2.11953 -0.09415,0.428036 c 0,0 0.380503,0.666552 0.380503,0.762799 0,0.09505 0.07115,0.927504 0.07115,0.927504 l 0.26154,0.905082 0.309366,-0.02334 -0.190402,-0.523682 0.238823,0.02394 0.1653,0.832747 0.02364,0.332677 -0.188912,-0.166489 -0.167385,0.166489 -0.119265,0.14348 0.238229,0.215204 -0.118663,0.331185 -0.04721,0.429829 0.33328,0.04781 0.237927,0.190101 -0.237927,0.404718 c 0,0 1.475392,2.595686 2.714055,2.904458 1.238662,0.310857 1.595553,0.405313 1.595553,0.405313 l 0.524872,-0.286048 0.164697,-0.213721 -1.094287,-0.380805 -0.833349,-0.906279 -0.167385,-0.47526 0.261841,-0.1898 -0.04691,-0.358089 c 0,0 0,-0.261547 0.09386,-0.332685 0.09625,-0.07115 0.286349,-0.428623 0.286349,-0.428623 l -0.286349,-0.143179 -0.475562,-0.475554 0.04751,-0.549092 0.286349,-0.165292 c 0,0 0.02304,-0.310564 -0.02394,-0.381701 -0.04872,-0.07055 0.07145,-0.428925 0.142877,-0.452244 0.07206,-0.02455 0.260644,-0.310563 0.260644,-0.310563 h -0.331789 l -0.190101,-0.07055 -0.239125,-0.379909 v -0.286951 l 0.404718,0.118964 0.382303,-0.07176 0.214015,-0.309359 c 0,0 -0.07145,-0.190109 -0.09505,-0.261246 -0.02394,-0.07115 0.04751,-0.3814 0.118663,-0.405313 0.07115,-0.02244 0.499467,0.02394 0.499467,0.02394 l 0.810031,-0.213721 c 0,0 0.309969,-0.548491 0.286349,-0.643542 -0.02387,-0.09505 -0.02387,-0.404718 -0.02387,-0.404718 0,0 0,-0.213713 -0.190109,-0.239117 -0.191592,-0.02304 -0.191592,-0.09326 -0.239125,-0.286056 -0.04841,-0.1898 -0.191592,-0.404115 -0.191592,-0.404115 l -0.237333,0.04781 0.214911,-0.213713 0.476156,0.355995 0.713784,0.120463 0.54819,-0.548492 0.381407,-0.928994 0.166188,-0.690774 h 0.35659 l 0.380511,-0.690464 0.143773,-0.642646 -0.118964,-0.78672 0.16649,-0.284256 1.237758,-0.833643 0.929597,-0.309968 0.310857,-0.239118 c 0,0 0.474659,-0.642051 0.474659,-0.713489 0,-0.07145 0.191004,-1.000727 0.191004,-1.000727 0,0 0.213714,-1.093993 0.189205,-1.165131 -0.02304,-0.07266 0.04841,-1.024647 0,-1.048561 -0.04781,-0.02334 0.02447,-0.286349 0.02447,-0.286349 l 0.905081,-1.285291 0.428632,-0.977416 c 0,0 0.310864,-0.499467 0.262737,-0.594518 -0.04487,-0.10462 -0.304879,-0.914651 -0.304879,-0.914651 z m 9.415484,-34.858239 c 0,0 0.143773,-0.715278 0.03674,-0.786717 -0.108498,-0.07114 0.428632,-0.499768 0.428632,-0.499768 0,0 0.784626,-0.35749 0.820489,-0.463601 0.03561,-0.107904 -0.214015,-0.07353 -0.214015,-0.07353 l 0.07085,-0.535039 0.500966,-0.178446 c 0,0 -0.285159,-0.429226 -0.357795,-0.64384 -0.07055,-0.212222 0.857858,-0.320425 0.857858,-0.320425 l 1.643079,-0.749952 -1.9638,0.214016 -0.07266,-0.249286 L 52.147968,14 l -4.141915,0.143774 -0.463304,0.249884 h -1.430856 l -1.999376,0.178745 c 0,0 -1.892956,0.249286 -2.000264,0.320425 -0.106413,0.07203 0.214609,0.179044 0.214609,0.179044 l -0.03554,0.250183 -2.322784,0.28635 -0.141981,0.249885 c 0,0 0.249583,0.249584 0.285159,0.285453 0.03494,0.03557 1.000132,0.249585 1.000132,0.249585 l 1.143311,0.142876 c 0,0 0.64324,0.286052 0.74905,0.392163 0.108205,0.107008 0.07356,0.430124 0.03704,0.60857 -0.03704,0.178744 -0.142877,0.214015 -0.285453,0.42833 -0.14348,0.214912 0.285453,0.107008 0.285453,0.107008 l 0.500363,0.249585 c 0,0 -0.142877,0 -0.358088,0.03707 -0.215212,0.03557 -0.500364,0.105812 -0.500364,0.105812 l -0.03554,0.394255 0.715575,-0.142578 -0.07356,0.249287 -0.499166,0.107008 -0.496185,0.606477 -0.03614,1.14301 0.106706,0.964266 0.285754,0.786119 0.464795,0.07144 0.53594,0.321622 0.715274,-0.03646 0.713188,-0.963967 0.749653,-0.714381 0.214609,-0.392761 0.358089,-0.214015 0.784627,-0.178148 1.000734,-0.215211 c 0,0 0.927496,-0.607374 1.036002,-0.678812 0.106111,-0.07114 2.677884,-0.855764 2.677884,-0.855764 l 0.567917,0.03528 z m 0.717375,2.606447 1.000132,-0.321024 0.213118,-0.392461 -0.391564,-0.321024 -1.822722,0.214016 -0.535631,-0.322219 -0.642051,0.357789 c 0,0 0.321022,0.142876 0.428029,0.214015 0.107015,0.07144 0.321323,-0.07114 0.321323,-0.07114 v 0.321322 c 0,0 0.571508,0.321024 0.499174,0.428928 -0.07176,0.106709 0.929589,-0.108203 0.929589,-0.108203 z m 1.760544,4.869153 -0.202359,0.132117 -0.05978,0.226867 0.178739,0.106706 0.286056,0.05948 0.296513,-0.07145 0.251677,-0.14287 0.07055,-0.07115 0.416968,-0.02567 0.04751,-0.176654 0.09625,-0.179342 V 25.573 l 0.225971,-0.131221 -0.07266,-0.332384 -0.356289,-0.08309 -0.285453,-0.04781 -0.190109,0.05918 -0.109093,0.154533 c 0,0 -0.17636,0.190696 -0.141386,0.153938 0.03674,-0.03441 0.130619,-0.03441 0.108204,0.02477 -0.02477,0.05918 -0.121057,0.11867 -0.121057,0.11867 h -0.140483 l -0.121659,-0.07145 -0.177542,0.02364 -0.06008,0.107308 0.07296,0.166791 -0.120462,0.119558 0.142877,0.119265 0.142275,0.03433 -0.02214,0.167385 -0.164396,0.07055 z m 1.416807,-1.403954 c 0.0837,0.03471 0.118663,0.0834 0.107007,0.118369 -0.01047,0.03704 0.178747,0.06038 0.178747,0.06038 l 0.155429,-0.03531 -0.107008,0.166489 c 0,0 0.02334,0.107309 0.05858,0.155135 0.03674,0.04751 0.156031,0 0.156031,0 0,0 0.286047,-0.04781 0.321917,-0.03584 0.03463,0.01137 -0.01288,0.118963 -0.01288,0.118963 l 0.108204,0.166196 c 0,0 0.05828,0.238523 0.07025,0.309366 0.01288,0.07266 -0.09535,0.04721 -0.09535,0.04721 0,0 -0.224179,0.03554 -0.274092,0.02507 -0.04751,-0.01197 -0.141687,0.0822 -0.224781,0.176948 -0.08399,0.09714 0.01197,0.06038 0.01197,0.06038 h 0.176955 c 0,0 0.01408,0.118369 0.02507,0.167686 0.01077,0.04751 -0.14317,0.09416 -0.1898,0.0822 -0.04751,-0.01137 -0.262435,0.09595 -0.262435,0.09595 l 0.01107,0.178747 0.262737,0.02364 0.262443,0.03584 0.04751,0.08309 c 0,0 -0.168582,0.03584 -0.215211,0 -0.04751,-0.03554 -0.190403,0.190402 -0.190403,0.190402 l -0.130619,0.142877 -0.274995,0.214015 0.154533,0.07175 0.09565,-0.119558 0.239418,0.01197 0.260049,-0.03561 c 0,0 0.156325,-0.190403 0.192194,-0.190403 0.03464,0 0.404417,-0.01137 0.404417,-0.01137 0,0 0.297711,-0.05978 0.33328,-0.03584 0.03554,0.02394 0.274099,0.07206 0.311158,0.08339 0.03501,0.01167 0.499174,-0.13092 0.499174,-0.13092 0,0 0.09475,-0.154533 0.118361,-0.202058 0.02477,-0.04751 -0.130017,-0.09505 -0.165593,-0.13092 -0.03554,-0.03584 0.118369,-0.08309 0.190403,-0.118663 0.07085,-0.03561 0.09476,-0.167092 0.13092,-0.225979 0.03441,-0.05888 -0.04811,-0.179635 -0.06008,-0.214308 -0.01137,-0.03674 -0.178446,-0.02567 -0.22567,-0.03674 -0.04751,-0.01227 -0.249884,0.01107 -0.249884,0.01107 l 0.01077,-0.237935 c 0,0 -0.559552,-0.761602 -0.547596,-0.797171 0.01197,-0.03471 -0.13092,-0.261841 -0.190402,-0.272901 -0.05948,-0.01197 -0.131222,-0.06127 -0.20266,-0.15633 -0.07085,-0.09445 0.09535,-0.214314 0.09535,-0.214314 0,0 0.201764,-0.214016 0.225971,-0.261243 0.02394,-0.04783 -0.02447,-0.190402 -0.05948,-0.202358 -0.03614,-0.01166 -0.451641,0.01196 -0.451641,0.01196 0,0 -0.118663,-0.09505 -0.10761,-0.130621 0.01227,-0.03736 0.131222,-0.04842 0.167393,-0.04842 0.03373,0 0.249583,-0.415775 0.297108,-0.427732 0.04721,-0.01285 -0.03614,-0.118964 -0.03614,-0.118964 l -0.165886,0.06935 -0.154834,0.227765 c 0,0 -0.144074,0.03557 -0.202359,0 -0.05888,-0.03587 -0.179041,0 -0.226574,-0.01196 -0.04751,-0.01345 -0.156324,0.142877 -0.156324,0.142877 0,0 -0.164991,0.178446 -0.213119,0.190103 -0.04751,0.01196 -0.214315,0.202359 -0.202359,0.214015 0.01288,0.01196 0.02364,0.167387 0.02364,0.167387 0,0 -0.03554,0.05859 -0.09505,0.07054 -0.05918,0.01165 0.04721,0.214015 0.04721,0.214015 l 0.144067,0.07233 c 0,0 -0.08458,0.0825 -0.131817,0.07144 -0.04781,-0.01315 -0.155428,0.119557 -0.07175,0.154531 z m 56.005721,-2.583133 c 0,-0.0099 -0.005,-0.0099 -0.0155,-0.0039 0.012,0.0078 0.0149,0.01047 0.0149,0.0039 z M 97.750066,43.254077 c 0.02394,-0.03554 0.356598,-0.202359 0.368253,-0.28665 0.01257,-0.0816 0.250178,0.775358 0.250178,0.775358 l 0.167988,0.594819 c 0,0 0.129723,0.428029 0.17755,0.511726 0.04781,0.08399 0.118067,0.631284 0.118067,0.67911 0,0.04721 0.156626,0.367651 0.08459,0.404116 -0.07296,0.03561 -0.190403,0.01167 -0.167687,0.05978 0.02507,0.04691 0.08279,0.309366 0.08279,0.358683 0,0.04691 -0.03501,0.367358 -0.05768,0.427141 -0.02507,0.05978 -0.03554,0.214609 -0.03554,0.28485 0,0.07206 0.0454,0.204151 0.0454,0.238531 0,0.03644 0.03674,0.09565 0.03674,0.09565 0,0 0.04841,0.02455 0.07115,-0.03584 0.02455,-0.05978 0.202652,-0.08309 0.227461,-0.05978 0.02304,0.02447 0.296514,0.344634 0.321022,0.441183 0.02334,0.09445 0.321029,0.559845 0.355996,0.607069 0.03614,0.04781 0.191599,0.202962 0.09446,0.33328 -0.09446,0.13092 -0.09446,0.154532 -0.0816,0.225677 0.01167,0.07115 0.04781,0.332677 0.165895,0.477346 0.120461,0.141982 0.368851,0.415779 0.368851,0.415779 0,0 0.31056,0.215807 0.35839,0.275288 0.0466,0.05888 0.39216,0.09446 0.42892,0.237032 0.0341,0.142576 0.13003,0.28665 0.13003,0.28665 0,0 0.27319,0.0825 0.27319,0.119265 0,-0.02959 -0.002,-0.445369 -0.0347,-0.502163 -0.0349,-0.05798 -0.32042,-0.642043 -0.35748,-0.677318 -0.0346,-0.03614 -0.0942,-0.118964 -0.0586,-0.272299 0.0355,-0.156626 -0.0242,-0.561638 -0.0242,-0.561638 l -0.55954,-0.667161 c 0,0 -0.48841,-0.47645 -0.500072,-0.451942 -0.01167,0.02334 -0.381701,-0.143171 -0.36735,-0.286048 0.0096,-0.142576 -0.03855,-0.499174 -0.145272,-0.582863 -0.10581,-0.0828 -0.201161,-0.214918 -0.284557,-0.262142 -0.08279,-0.04872 -0.02334,-0.500664 0,-0.560146 0.02304,-0.05948 0.213721,-0.582569 0.202661,-0.617536 -0.01318,-0.03554 0.04721,-0.523681 0.04721,-0.523681 0,0 0.154231,-0.204453 0.189807,-0.132419 0.03674,0.07115 0.202653,0 0.154826,0.214315 -0.04721,0.215814 -0.02274,0.346735 -0.02274,0.346735 l 0.427437,-0.08429 0.29861,0.310262 0.21491,0.284851 0.2735,0.167091 c 0,0 0.0712,0.321918 0.10671,0.34434 0.0364,0.02477 0.21461,-0.07115 0.21461,-0.07115 l 0.27379,0.191901 c 0,0 -0.15542,0.28485 -0.11836,0.357486 0.0349,0.07115 0.0697,0.320427 0.0697,0.320427 l 0.26304,-0.21461 0.33417,-0.249884 0.16649,-0.238229 0.0595,-0.178152 0.47527,-0.203548 0.45283,-0.416374 -0.0111,-0.881469 -0.14318,-0.547001 -0.40471,-0.571802 -0.78672,-0.785221 -0.30817,-0.380805 c 0,0 -0.21491,-0.273798 -0.20385,-0.344634 0.0123,-0.07266 0.0586,-0.452544 0.0586,-0.452544 l 0.2158,-0.202954 0.41727,-0.416675 c 0,0 0.28545,-0.190402 0.33328,-0.143171 0.0472,0.04781 0.42803,0.03584 0.44029,0.07115 0.0111,0.03584 0.061,0.02455 0.035,0.09505 -0.0239,0.07115 0.0117,0.393357 0.0472,0.429227 0.0367,0.03584 0.12046,0.07055 0.15603,0.08309 0.0335,0.01137 0.15423,-0.03614 0.16649,-0.107301 0.0123,-0.07085 -0.0123,-0.321323 0,-0.381106 0.0123,-0.05918 0.0355,-0.05918 0.0717,-0.07115 0.0356,-0.01197 0.21312,0 0.21312,0 l 0.1916,-0.190402 0.33269,0.118964 0.35718,-0.310262 c 0,0 0.19101,-0.03464 0.21492,-0.01137 0.0233,0.02477 0.33417,-0.237626 0.33417,-0.237626 l 0.32103,-0.07176 0.28485,-0.119265 c 0,0 0.11897,-0.274091 0.11897,-0.238824 0,0.03614 0.69136,-0.689569 0.69136,-0.689569 l 0.22597,-0.559852 0.2732,-0.797472 0.16649,-0.989373 0.0126,-0.285159 c 0,0 -0.26244,0.21372 -0.29741,0.226573 -0.0361,0.01107 -0.24989,-0.04721 -0.24989,-0.04721 l 0.1659,-0.298306 c 0,0 0.0956,-0.214014 0.0478,-0.225971 -0.0478,-0.01227 -0.28606,-0.08309 -0.28606,-0.08309 0,0 0.10253,-0.234343 0.11777,-0.249583 -0.0218,0 -0.41428,-0.40532 -0.41428,-0.40532 0,0 -0.52458,-0.749947 -0.54849,-0.691067 -0.0239,0.05978 -0.42803,-0.285152 -0.46509,-0.285152 -0.0341,0 -0.0586,0.01167 -0.0819,-0.05918 -0.0239,-0.07176 0.35719,-0.571809 0.36884,-0.608869 0.0117,-0.03441 0.34434,-0.404417 0.40532,-0.392166 0.058,0.01197 0.26094,0.02364 0.26094,0.02364 0,0 -0.0487,-0.237627 -0.0837,-0.249583 -0.0346,-0.01167 -0.84411,-0.08309 -0.84411,-0.08309 0,0 -0.32102,0.190402 -0.33328,0.237927 -0.0138,0.04751 -0.27319,0.02424 -0.27319,0.02424 l -0.0364,-0.274099 -0.32312,-0.154532 -0.36795,-0.130921 0.0126,-0.250185 c 0,0 0.22508,-0.08279 0.26124,-0.108498 0.0355,-0.02394 0.32102,-0.1653 0.34434,-0.285453 0.0239,-0.119265 0.21491,-0.309367 0.23942,-0.345237 0.0233,-0.03554 0.17755,-0.166489 0.21252,-0.142575 0.0367,0.02364 0.26424,0.190402 0.23883,0.202359 -0.0224,0.01167 -0.17725,0.262435 -0.14317,0.332677 0.037,0.07266 0.20355,0.287245 0.18024,0.322219 -0.0233,0.03644 -0.0957,0.167385 -0.0957,0.167385 l 0.17875,-0.02394 c 0,0 0.22597,-0.178445 0.21371,-0.202057 -0.0117,-0.02568 0.17875,-0.226566 0.21432,-0.226566 0.0355,0 0.42953,-0.08459 0.43969,-0.04902 0.0129,0.03614 0.40591,0.13092 0.40591,0.13092 l 0.0717,0.715575 c 0,0 0.95261,0.225971 0.95261,0.285754 0,0.05918 -0.1076,0.153938 -0.1076,0.153938 0,0 -0.012,0.190696 0.0358,0.215212 0.0472,0.02274 0.20175,0.153937 0.23822,0.202359 0.037,0.04751 0.10761,0.369744 0.10761,0.369744 0,0 -0.13033,0.285152 -0.10761,0.321021 0.0233,0.03614 0.26184,0.249885 0.26184,0.249885 l 0.67911,-0.261841 c 0,0 0.36825,-0.285453 0.36825,-0.321022 0,-0.03644 -0.39216,-0.988778 -0.39216,-0.988778 l -0.90568,-0.620524 -0.39156,-0.321022 0.54699,-0.535044 -0.0478,-0.463898 c 0,0 0.11896,-0.454036 0.14287,-0.454036 0.0251,0 0.3575,-0.237325 0.3575,-0.237325 l 0.3805,0.263332 0.5718,-0.358089 0.32163,-1.153769 0.0117,-1.501399 -0.51202,-0.916443 c 0,0 -0.23763,-0.559544 -0.27469,-0.559544 -0.0355,0 -0.37991,-0.536836 -0.37991,-0.536836 l -0.79778,-0.356297 -0.34613,-0.01197 -0.21342,0.35659 -0.22537,-0.273496 -0.30967,-0.547 0.0349,0.332985 c 0,0 0.0478,0.214015 0.0335,0.26154 -0.009,0.04751 -0.23673,-0.297711 -0.23673,-0.297711 0,0 -0.3808,-0.07085 -0.40442,-0.07085 -0.023,0 -0.21431,-0.108197 -0.21431,-0.108197 0,0 0.56164,-0.653109 0.51292,-0.629794 -0.0472,0.02331 0.0951,-0.833346 0.0951,-0.833346 0,0 0.20206,-0.405614 0.21371,-0.381701 0.0123,0.02421 0.78463,-0.0831 0.78463,-0.0831 0,0 1.41711,-0.02302 1.40546,0 -0.0117,0.02481 0.69136,-0.04663 0.69136,-0.04663 0,0 0.0227,0.202358 0.0843,0.22627 0.058,0.02332 0.6292,-0.01285 0.6292,-0.01285 l 0.41697,-0.09475 0.20145,-0.02451 c 0,0 -0.24928,-0.249586 -0.28545,-0.249586 -0.0355,0 -0.27319,-0.107904 -0.2965,-0.11986 -0.0248,-0.01196 0.17814,-0.463302 0.16589,-0.53504 -0.0111,-0.07174 -0.0349,-0.321322 0.0595,-0.297409 0.0951,0.02421 0.73949,0.02421 0.73949,0.02421 0,0 0.26064,0.248988 0.26064,0.320724 0,0.07114 0.41696,0.321024 0.41696,0.321024 0,0 0.22688,-0.249884 0.2499,-0.297111 0.02,-0.03796 0.14049,-0.172169 0.18651,-0.194288 -0.0574,-0.04693 -0.2445,-0.293524 -0.2445,-0.293524 0,0 0.20147,-0.226869 0.30817,-0.107905 0.10851,0.119263 0.34553,0.630987 0.34553,0.630987 0,0 -0.21491,0.535339 -0.21491,0.583761 0,0.04663 -0.0828,0.536234 -0.0828,0.572402 0,0.03527 -0.23853,0.249286 -0.23853,0.249286 0,0 -0.11777,0 -0.11777,0.05948 0,0.05918 0.16499,0.380207 0.16499,0.380207 0,0 0.0616,0.369745 0.0951,0.392163 0.0365,0.02601 1.22761,1.060217 1.22761,1.060217 l 0.77326,0.763402 0.50127,0.415778 0.14198,-0.03531 c 0,0 0.11986,-0.582863 0.0721,-0.560441 -0.0481,0.02477 -0.23882,-0.177549 -0.21401,-0.212523 0.023,-0.03795 0.0705,-0.204754 0.12943,-0.192496 0.0607,0.01288 0.23882,0.04721 0.23882,0.04721 l -0.35719,-0.451942 0.11837,-0.249282 0.27499,0.08309 -0.36945,-0.39246 -0.1904,-0.381707 c 0,0 0.20236,0.04722 0.21581,0.0825 0.0105,0.03796 0.22567,-0.152741 0.15393,-0.165593 -0.0721,-0.01315 -0.50036,-0.167387 -0.50036,-0.203255 0,-0.03527 -0.24929,-0.09475 -0.26304,-0.142877 -0.0108,-0.04722 0.0481,-0.237629 0.0138,-0.237629 -0.0355,0 -0.40472,-0.16649 -0.40472,-0.16649 l -0.23972,0.03437 -0.13092,-0.260345 0.0712,-0.202359 c 0,0 -0.22807,-0.324013 -0.24869,-0.344637 0.0182,0.01644 0.50874,-0.170973 0.55536,-0.191 -0.002,0.0078 0.23195,-0.01942 0.25258,0.06994 0.0248,0.09595 0.13092,0.191299 0.13092,0.191299 l 0.25138,-0.237928 c 0,0 0.17814,-0.155431 0.24958,-0.120159 0.0715,0.03557 0.41668,0.108501 0.4654,0.155131 0.0425,0.04364 0.25915,0.105214 0.29263,0.144371 -0.003,-0.04992 0.005,-0.204451 0.005,-0.204451 l 0.0102,-0.130622 0.33567,-0.451943 c 0,0 0.12943,-0.190103 0.24988,-0.215211 0.11897,-0.02272 0.36825,-0.237031 0.41578,-0.200864 0.0478,0.03497 0.44268,0.02391 0.49021,0.13092 0.0466,0.106709 0.26093,-0.03587 0.26093,-0.03587 0,0 -0.20355,-0.249585 -0.21431,-0.22657 -0.0111,0.02361 -0.66746,-0.262737 -0.70273,-0.249584 -0.0361,0.01076 -0.47525,-0.262438 -0.47525,-0.262438 0,0 -0.22747,-0.08339 -0.23823,-0.08339 -0.0117,0 0.17725,-0.09535 0.2484,-0.119263 0.0721,-0.02331 0.23911,-0.249585 0.23911,-0.249585 0,0 -0.0828,-0.154534 -0.13121,-0.202358 -0.0481,-0.04722 0.26214,-0.01166 0.36885,0.03587 0.1067,0.04753 0.64414,0.07114 0.63128,0.107008 -0.0132,0.03527 0.3572,0.03527 0.34494,0.130919 -0.0123,0.09535 0.13092,0.118366 0.17874,0.16649 0.0478,0.04783 0.50007,0.118964 0.52458,0.130921 0.0218,0.01165 0.47436,-0.03557 0.47436,0.03527 0,0.07174 0.14348,-0.01136 0.14348,-0.01136 0,0 -0.0712,-0.344935 -0.15454,-0.321322 -0.0843,0.02361 -0.23972,-0.09535 -0.13152,-0.118665 0.10761,-0.02361 0.30997,-0.142876 0.25078,-0.166788 -0.0604,-0.02331 -0.15512,-0.142877 -0.298,-0.202956 -0.14228,-0.05948 -0.71408,-0.189207 -0.77357,-0.166789 -0.0589,0.02481 -0.9529,-0.191 -1.01059,-0.191 -0.061,0 -0.37034,-0.0822 -0.37034,-0.0822 l -3.04793,-0.821688 c 0,0 -1.89297,-0.202059 -1.88191,-0.238825 0.0129,-0.03467 -1.09488,-0.130621 -1.09488,-0.130621 l 0.6558,0.547892 -0.6558,-0.09475 c 0,0 -0.80884,-0.13092 -0.83275,-0.166789 -0.0245,-0.03527 -2.2633,-0.04752 -2.2633,-0.04752 l -0.33269,-0.358686 c 0,0 -1.07216,-0.176951 -1.10773,-0.188908 -0.0355,-0.01315 -1.36959,0 -1.36959,0 l -1.11701,-0.166788 c 0,0 -0.75114,-0.322219 -0.91793,-0.286051 -0.16649,0.03587 -1.80957,-0.107008 -1.90521,-0.155132 -0.0945,-0.04783 -0.748463,0.04783 -0.748463,0.04783 l 0.532943,0.405016 -0.879376,-0.02451 -0.881168,-0.01226 -0.334176,-0.166191 0.01378,0.48841 c 0,0 -0.25078,0.04633 -0.25078,-0.01285 0,-0.05948 -0.774463,-0.332681 -0.774463,-0.332681 0,0 -0.643843,-0.570907 -0.654602,-0.535039 -0.01227,0.03527 -1.045564,-0.202657 -1.045564,-0.202657 l -0.64504,-0.118366 c 0,0 -0.190403,0.0828 -0.167084,0.130622 0.02394,0.04753 0.273797,0.214015 0.238229,0.249584 -0.03554,0.03527 -0.427434,-0.03557 -0.427434,-0.03557 l -1.01239,-0.03557 -0.179944,-0.190403 -1.333412,0.01196 c 0,0 -0.499769,-0.393358 -0.51232,-0.370642 -0.01077,0.02391 -0.380507,0.08549 -0.380507,0.08549 l -0.286056,0.308768 -0.808834,0.05978 0.870409,-0.464797 0.309366,-0.225673 c 0.02244,-0.06098 -0.216408,-0.41727 -0.262435,-0.370043 -0.04691,0.04812 -0.727238,-0.16649 -0.762807,-0.16649 -0.03554,0 -1.059614,-0.02391 -1.059614,-0.02391 -0.07236,-0.01166 -0.392761,0 -0.392761,0 0,0 -0.118964,-0.332681 -0.178747,-0.321023 -0.05888,0.01196 -0.833945,-0.01196 -0.833945,-0.01196 0,0 -0.689869,0.142876 -0.715876,0.214016 -0.02123,0.07203 0.132713,0.142876 0.132713,0.142876 0,0 -0.368848,0.273796 -0.405012,0.249885 -0.03494,-0.02391 -1.107742,-0.02391 -1.107742,-0.02391 0,0 -1.487944,0.321024 -1.487944,0.285155 0,-0.03049 -0.445369,0.159615 -0.549086,0.205348 0.08757,0.07682 0.39993,0.254666 0.358684,0.296513 -0.04721,0.04722 -1.04826,0.09505 -1.083829,0.02332 -0.032,-0.06546 -0.427735,0.08549 -0.4905,0.09505 0.07206,0.02989 0.540714,0.396348 0.573293,0.452243 0.03554,0.05918 0.12166,0.142876 0.238229,0.09505 0.118964,-0.04753 0.225971,-0.09505 0.250487,-0.04753 0.02394,0.04753 0,0.154533 0,0.154533 0,0 -0.298313,0.05978 -0.332685,0.05978 -0.03411,0 -0.393356,-0.202657 -0.429226,-0.214314 -0.03494,-0.01196 -0.511424,-0.118964 -0.571508,-0.118964 -0.06099,0 -0.322513,0.03557 -0.322513,0.03557 0,0 -0.202065,0.178745 -0.154834,0.202657 0.04932,0.02361 0.16798,0.249586 0.204151,0.22657 0.03501,-0.02481 0.249885,-0.119861 0.260945,-0.01226 0.01227,0.105812 -0.249289,0.190701 -0.249289,0.190701 0,0 -0.358684,-0.144072 -0.370339,-0.178744 -0.01167,-0.03707 -0.178747,-0.238527 -0.178747,-0.345833 0,-0.107307 -0.213713,-0.487812 -0.273203,-0.428629 -0.05888,0.05978 -0.273195,0.0834 -0.273195,0.0834 l 0.262142,0.237927 c 0,0 0.225369,0.189805 0.165887,0.202359 -0.05888,0.01196 -0.225971,0.106709 -0.237032,0.142876 -0.01227,0.03557 -0.14317,0.23733 0.01107,0.23733 0.154834,0 0.40502,0.239124 0.40502,0.239124 0,0 0.01167,0.32192 0.03494,0.369446 0.02394,0.04753 0.392166,0.297111 0.392166,0.297111 0,0 0.228065,-0.142877 0.26154,-0.178147 0.03765,-0.03587 0.347329,-0.09505 0.418467,-0.02391 0.07145,0.07114 -0.143472,0.249585 -0.202359,0.214314 -0.06008,-0.03616 -0.190403,-0.07174 -0.249885,-0.04812 -0.06069,0.02361 -0.06069,0.02361 -0.06069,0.02361 0,0 -0.08279,0.178744 0,0.214314 0.084,0.03616 0.192495,0.155131 0.179944,0.214314 -0.01287,0.05918 -0.238229,0.464498 -0.238229,0.464498 l -0.334175,0.07114 C 81.247962,20.201936 81.058162,20.11854 81.058162,20.11854 l 0.356891,-0.273198 0.04781,-0.369745 c 0,0 0.01227,-0.02361 -0.08279,-0.107008 -0.09714,-0.0828 -0.429527,-0.380206 -0.429527,-0.380206 0,0 -0.202058,-0.333876 -0.202058,-0.369446 0,-0.03736 -0.09505,-0.215211 -0.09505,-0.215211 0,0 -0.226573,-0.154534 -0.274392,-0.165294 -0.04661,-0.01226 -0.04661,-0.143773 -0.01047,-0.214913 0.03501,-0.07174 -0.03614,-0.392461 -0.04841,-0.345234 -0.01378,0.04783 -0.41757,-0.01166 -0.465691,-0.02361 -0.04781,-0.01166 -0.154238,-0.142877 -0.154238,-0.142877 0,0 -0.05888,-0.201461 -0.15573,-0.118665 -0.09416,0.0831 -0.260644,0.118665 -0.260644,0.118665 l -0.166489,0.439988 0.04721,0.178745 -0.333272,0.226868 c 0,0 0.281267,0.241814 0.307273,0.260346 -0.02033,-0.0099 0.01498,0.24002 0.02598,0.299203 0.01077,0.05948 0.511432,0.190701 0.511432,0.190701 0,0 0.262135,0.106709 0.285453,0.213717 0.02447,0.107008 -0.07175,0.238227 -0.07175,0.238227 l -0.510829,-0.238227 -1.13225,-0.356593 c 0,0 -1.093985,-0.07114 -1.070976,-0.106709 0.02477,-0.03557 -0.417269,-0.286351 -0.417269,-0.286351 l -0.250178,0.130622 c 0,0 0.237627,0.167686 0.274694,0.178147 0.03554,0.01315 0.392753,0.144072 0.392753,0.144072 0,0 0.10761,0.05948 0.130921,0.154833 0.02477,0.09475 -0.202058,0.213716 -0.202058,0.213716 0,0 -0.154231,-0.16649 -0.154231,-0.20176 0,-0.03587 -0.03674,-0.178745 -0.084,-0.155131 -0.04781,0.02391 -0.488105,0.250182 -0.488105,0.250182 0,0 -0.50007,0.01166 -0.560147,0.05918 -0.05948,0.04753 -0.380805,0.274394 -0.404718,0.214315 -0.02447,-0.05948 0.04721,-0.309367 0.03644,-0.356893 -0.01257,-0.04753 -0.500665,0.08369 -0.500665,0.08369 0,0 -0.630094,0.20176 -0.654903,0.260943 -0.02334,0.06038 -0.308764,0.119264 -0.357788,0.13122 -0.04721,0.01196 -0.106111,0.01196 -0.106111,0.01196 0,0 -0.249282,0.155431 -0.20266,0.23763 0.04781,0.08369 -0.345229,0.13062 -0.345229,0.13062 0,0 -0.249289,-0.154234 -0.260945,-0.188907 -0.01137,-0.03258 0.270508,-0.222086 0.29741,-0.238227 -0.03644,0.02361 -0.29741,-0.309664 -0.333581,-0.321621 -0.0314,-0.0096 -0.678508,0.0072 -0.793888,0.0024 0.07532,0.0275 0.305783,0.250483 0.305783,0.283362 0,0.03587 0.03614,0.381402 0.03614,0.381402 0,0 0.188911,0.11986 0.225376,0.105812 0.03554,-0.01076 -0.03644,0.203255 -0.03644,0.203255 l -0.319531,-0.03557 c 0,0 -0.132713,-0.191598 -0.23972,-0.08339 -0.107308,0.108203 -0.463605,0.381701 -0.486916,0.346131 -0.02454,-0.03587 -0.226573,0.03557 -0.214617,0.107008 0.01227,0.07174 0.166791,0.225673 0.166791,0.225673 0,0 -0.22567,0.190402 -0.203556,0.119562 0.02477,-0.07234 -0.617829,-0.238228 -0.665957,-0.226271 -0.04932,0.01196 -0.32252,0.09535 -0.32252,0.09535 l 0.118369,0.20206 c 0,0 0.358089,0.02361 0.405012,0.09505 0.04932,0.07114 -0.0819,0.214015 -0.119559,0.214015 -0.03351,0 -0.86742,-0.392761 -0.86742,-0.392761 0,0 -0.274392,-0.285155 -0.1919,-0.36825 0.08549,-0.08339 0.15603,-0.214015 0,-0.214015 -0.153931,0 -0.32042,-0.119861 -0.331179,-0.167387 -0.01257,-0.04753 0.938858,0.09625 0.938858,0.09625 l 0.549086,0.05859 c 0,0 -0.07115,0.07233 0.143171,0 0.213419,-0.07144 0.570913,-0.250781 0.618732,-0.260944 0.04781,-0.01405 0.106111,-0.239722 0.106111,-0.239722 l -0.07115,-0.202059 -2.0466,-0.487812 c 0,0 -0.679705,-0.202358 -0.691361,-0.237928 -0.01167,-0.03557 -0.607378,-0.09595 -0.607378,-0.09595 l -0.286349,0.03677 0.23972,-0.298307 c 0,0 -0.930192,-0.274693 -0.952908,-0.239123 -0.02507,0.03557 -0.405313,0.216406 -0.405313,0.216406 l -0.714084,-0.11986 -0.917633,0.214016 -0.928995,0.226868 -1.344472,0.570908 0.500062,0.04753 -0.215505,0.368549 -0.595422,0.442081 -0.332082,0.546696 -0.04781,0.297708 -0.321022,0.344637 c 0,0 -0.225971,-0.118665 -0.273496,-0.165593 -0.04721,-0.04872 -0.834246,0.224776 -0.834246,0.224776 l -0.475554,0.45284 c 0,0 -0.118964,0.226869 -0.142877,0.286351 -0.02477,0.06008 0.03554,0.691067 0.03554,0.691067 0,0 0.285754,0 0.202057,0.0831 -0.08369,0.0828 -0.07175,0.464797 -0.07175,0.464797 l 0.333874,0.224776 c 0,0 0.439985,0.144072 0.501267,0.131518 0.05707,-0.01165 0.272894,-0.154534 0.309366,-0.178446 0.0332,-0.02331 0.296807,-0.285155 0.379901,-0.274394 0.0831,0.01315 0.297116,-0.22657 0.321926,-0.141681 0.02334,0.0834 0.07145,0.380804 0.118361,0.452243 0.04751,0.07144 0.214015,0.202358 0.285159,0.36825 0.07085,0.167088 0.168583,0.334474 0.143472,0.368549 -0.02477,0.03707 -0.190997,0.202359 -0.190997,0.202359 0,0 -0.355995,0.04753 -0.404424,0.09684 -0.04721,0.04691 -0.106706,0.07055 -0.142576,0.04691 -0.03674,-0.02394 0.11867,-0.191299 0.154532,-0.237032 0.03614,-0.04872 -0.08309,-0.239422 -0.13092,-0.227764 -0.04841,0.01255 -0.09475,-0.107008 -0.04841,-0.142578 0.04841,-0.03587 0.03644,-0.261841 0.03644,-0.261841 0,0 -0.07145,-0.03616 -0.106713,-0.02361 -0.03584,0.01196 -0.452537,0.178148 -0.452537,0.178148 0,0 -0.225979,0.238227 -0.237928,0.285454 -0.01288,0.04902 -0.108204,0.298306 -0.04721,0.476148 0.05918,0.179643 0.201764,0.465397 0.201764,0.465397 0,0 0.153335,0.106413 0.09505,0.154533 -0.05858,0.04721 -0.179342,0.225971 -0.179342,0.225971 l -0.284263,0.01167 c 0,0 -0.512019,0.06069 -0.560441,0.08339 -0.04691,0.02455 -0.546398,0.178152 -0.523983,0.226573 0.02515,0.04751 -0.107602,0.560147 -0.107602,0.560147 -0.02304,0.01197 -0.52338,0.368848 -0.582569,0.368848 -0.05948,0 -0.42833,0.09475 -0.42833,0.09475 0,0 -0.16679,0.440588 -0.178144,0.416374 -0.01197,-0.02425 -0.561043,0.261841 -0.561043,0.261841 0,0 -0.41608,-0.119258 -0.428036,-0.167385 -0.01197,-0.04721 -0.155128,-0.154232 -0.16649,-0.118362 -0.01257,0.03614 0.142283,0.40651 0.142283,0.477949 0,0.06965 0.02424,0.212817 -0.02364,0.166188 -0.04781,-0.04872 -0.285755,-0.118663 -0.332979,-0.142877 -0.04872,-0.02334 -0.452845,-0.01257 -0.452845,-0.01257 h -0.166791 c 0,0 -0.202954,0.179341 -0.21491,0.14317 -0.01107,-0.03614 -0.02304,0.155429 -0.02304,0.155429 l 0.118369,0.118369 0.429828,0.178446 0.404417,0.250185 0.154834,0.380504 0.178145,0.357193 c 0,0 -0.119265,0.73799 -0.141387,0.774755 -0.02628,0.03494 -0.275288,0.202661 -0.275288,0.202661 L 56.648561,30.4902 c 0,0 -0.381099,-0.08279 -0.416675,-0.09475 -0.03554,-0.01257 -0.571802,0.07115 -0.58226,0.02364 -0.01197,-0.04811 -0.179342,-0.03614 -0.179342,-0.03614 l -0.08429,-0.09475 h -0.214022 l -0.178446,0.201764 -0.261841,0.01318 v 0.213119 c 0,0 0.107015,0.48931 0.09506,0.453741 -0.01197,-0.03674 -0.04721,0.570605 -0.04721,0.570605 0,0 -0.257353,0.517403 -0.28336,0.556864 0.006,0.01551 -0.01408,0.348218 -0.01408,0.348218 l 0.155134,0.250486 0.02364,0.296808 c 0,0 -0.119265,0.273503 -0.07145,0.249884 0.04811,-0.02425 0.429527,0.01167 0.439986,-0.03554 0.01197,-0.04721 0.238823,-0.154532 0.273496,-0.07175 0.03531,0.08309 0.167393,0 0.204452,0.144066 0.03321,0.142576 0.165292,0.344642 0.178152,0.379909 0.01167,0.03704 0.106706,0.07145 0.106706,0.07145 l 0.03554,0.09625 -0.07236,0.05978 -0.295919,0.665655 -0.656394,0.464802 -0.39216,0.249282 -0.107308,0.298607 -0.166188,0.190402 -0.04781,0.368849 c 0,0 0.04781,0.463597 0.02304,0.488113 -0.02304,0.02364 -0.892531,0.845298 -0.892531,0.845298 l -0.476156,0.107007 -0.263031,0.452839 c 0,0 -0.356899,0.332383 -0.379908,0.393363 -0.02477,0.05858 -0.202962,0.285747 -0.202962,0.285747 0,0 0.01197,0.475261 0,0.404424 -0.01227,-0.07145 -0.511424,0.392159 -0.511424,0.392159 0,0 -0.09505,0.547889 -0.118663,0.572405 -0.02364,0.02274 -0.261539,0.439985 -0.298305,0.428029 -0.03554,-0.01227 -0.07115,0.285453 -0.07115,0.333279 0,0.04721 0.118362,0.189808 0.118362,0.189808 0,0 0.167987,0.322813 0.179342,0.286944 0.01137,-0.03674 0.01137,0.107609 0.01137,0.107609 l -0.165894,0.165593 c 0,0 0.178747,0.274694 0.178747,0.310263 v 0.737094 l -0.191299,0.405614 -0.09505,0.524276 -0.286651,0.225678 0.01197,0.14317 0.250479,0.201765 0.03674,0.225669 -0.07266,0.250781 v 0.251081 l 0.179643,0.416675 c 0,0 0.178446,0.142576 0.214015,0.106706 0.03554,-0.03584 0.391564,0.225971 0.439985,0.308771 0.04781,0.0834 0.487519,0.607371 0.487519,0.631879 0,0.02334 0.07175,0.142584 0.07175,0.142584 l 0.214022,0.726334 c 0,0 1.036002,0.85666 1.059915,0.821393 0.02387,-0.03471 1.107441,0.773265 1.107441,0.773265 0,0 0.870409,-0.427434 0.858746,-0.391271 -0.01288,0.03494 0.7368,-0.03614 0.7368,-0.03614 l 0.453139,0.07115 0.332083,0.154833 1.215645,-0.558655 0.238229,-0.180539 0.939754,-0.03433 0.453139,0.176654 c 0,0 0.29741,0.442078 0.29741,0.513517 0,0.07145 0.178747,0.392159 0.202961,0.34434 0.02304,-0.04631 1.059614,-0.09416 1.096079,-0.0828 0.03441,0.01167 0.487217,0.45344 0.487217,0.45344 l -0.02364,0.41727 -0.07206,0.737101 -0.143171,0.357487 -0.141386,0.321917 -0.03554,0.226272 c 0,0 1.069779,1.571641 1.069779,1.583296 0,0.01167 0.274099,0.654008 0.274099,0.654008 l 0.322813,0.822582 0.190704,0.463304 -0.190704,0.261841 0.309668,0.799272 -0.10761,0.784619 -0.464494,1.012985 -0.202057,0.749652 0.05948,1.00014 0.557752,1.154966 0.584361,1.321756 0.05948,1.453271 0.465389,0.868022 0.334176,0.701827 0.321021,0.7631 0.165895,0.226273 c 0,0 0.02477,0.381098 -0.01287,0.381098 -0.03501,0 -0.212818,0.01288 -0.164999,0.0828 0.04721,0.07115 0.320427,0.547889 0.320427,0.547889 l 0.01167,0.214918 0.380503,0.213119 0.335667,-0.154239 c 0,0 0.332684,-0.05888 0.368848,-0.04721 0.03494,0.01167 0.498571,-0.155429 0.498571,-0.155429 l 0.714687,0.107301 0.500363,-0.26154 0.547889,-0.03554 c 0,0 0.940357,-0.91734 0.940357,-0.893426 0,0.02394 0.867419,-1.118502 0.867419,-1.118502 l 0.442681,-0.381994 0.248981,-0.749653 -0.03524,-0.486916 c 0,0 0.0837,-0.251977 0.166188,-0.299209 0.08429,-0.04721 0.892831,-0.523381 0.892831,-0.523381 l 0.168281,-0.786419 -0.156023,-0.774454 c 0,0 -0.119567,-0.29622 -0.119567,-0.34434 0,-0.04691 0.0834,-0.262737 0.0834,-0.262737 l 0.786712,-0.702128 c 0,0 0.178152,-0.226272 0.261547,-0.309366 0.08369,-0.08309 0.820489,-0.404116 0.820489,-0.404116 l 0.501267,-0.487217 0.08339,-1.798809 c 0,0 -0.178739,-0.668351 -0.190395,-0.726635 -0.01167,-0.06099 -0.356899,-1.190535 -0.356899,-1.238956 0,-0.04691 -0.118964,-0.738299 -0.132411,-0.798677 -0.0096,-0.05737 0.273195,-0.855764 0.273195,-0.855764 l 0.39426,-0.775057 1.608105,-1.845137 0.905684,-0.725145 1.368679,-2.23969 0.440889,-1.036303 0.09416,-1.04646 -0.284859,-0.04781 c 0,0 -0.143472,0.166489 -0.17904,0.189808 -0.03584,0.02455 -0.857263,0.07236 -0.857263,0.07236 l -1.000433,0.296514 -0.488106,0.178739 -0.476156,-0.499166 0.07115,-0.356892 -0.642043,-0.763108 -0.90539,-0.903282 c 0,0 -0.454036,-0.346132 -0.42952,-0.380805 0.02455,-0.03674 -0.25078,-0.870115 -0.25078,-0.846201 0,0.02394 -0.45195,-0.416073 -0.45195,-0.416073 L 73.246101,41.09949 72.757996,40.302914 72.223253,39.32549 c 0,0 -0.45344,-1.119691 -0.501267,-1.179173 -0.04661,-0.05918 -0.225369,-0.356296 -0.166489,-0.344641 0.05948,0.01227 0.488113,-0.04751 0.488113,-0.04751 0,0 0.797178,0.941252 0.797178,0.988778 0,0.04751 0.477347,0.844402 0.477347,0.844402 0,0 0.356598,0.500665 0.356598,0.463906 0,-0.03381 0.08339,0.464494 0.07115,0.50126 -0.01167,0.03584 0.214316,0.583759 0.214316,0.583759 l 0.67911,0.607671 0.142576,0.439692 0.619034,0.678516 0.119859,0.429226 -0.417563,-0.382303 c 0,0 -0.13092,0.21491 -0.08339,0.251676 0.04721,0.03464 0.464193,0.475562 0.464193,0.475562 l 0.204158,0.606475 0.154826,0.572404 0.225377,0.190402 0.667455,-0.130626 0.118067,-0.263031 h 0.655198 l 0.285453,-0.213721 0.355995,-0.04781 c 0,0 0.274393,-0.274091 0.298005,-0.286048 0.02455,-0.01197 1.084129,-0.475261 1.084129,-0.475261 0,0 0.02304,-0.346727 0.07115,-0.346727 0.04781,0 1.108336,-0.333279 1.108336,-0.333279 l 0.106714,-0.404417 0.379908,-0.02394 0.107301,-0.273196 0.36915,-0.225971 0.04631,-0.595722 0.274694,0.0825 0.084,-0.202653 -0.09505,-0.12943 0.416968,-0.607077 0.01167,-0.215505 -0.405011,-0.368848 -0.189808,-0.202058 c 0,0 -0.643541,-0.07236 -0.66805,-0.11986 -0.02334,-0.04781 -0.273202,-0.619636 -0.273202,-0.619636 0,-0.177542 0.01167,-0.500062 -0.02455,-0.475554 -0.03433,0.02364 -0.237032,0.249583 -0.237032,0.249583 l -0.7368,0.679111 -0.644438,0.166496 c 0,0 -0.213412,-0.05948 -0.225971,-0.09476 -0.01167,-0.03584 -0.03554,-0.584059 -0.03554,-0.584059 0,0 -0.274995,-0.321323 -0.285755,-0.368547 -0.01167,-0.04781 -0.21491,0.417269 -0.21491,0.417269 0,0 -0.309667,-0.417269 -0.274694,-0.430423 0.03554,-0.01107 -0.142575,-0.416073 -0.142575,-0.416073 L 77.437339,37.432807 77.4018,37.063063 c 0,0 0.297711,-0.322219 0.344935,-0.334176 0.04721,-0.01167 0.475856,-0.07085 0.523983,0.08459 0.04781,0.153335 0.405012,0.67911 0.405012,0.750248 0,0.07115 0.546699,0.547 0.607077,0.535043 0.05858,-0.01167 0.272299,0.107007 0.344935,0.154834 0.07115,0.04751 0.213118,0.130913 0.273203,0.191298 0.05948,0.05828 0.214315,0.02364 0.214315,0.02364 l 0.393055,-0.06008 c 0,0 0.321022,-0.30966 0.333875,-0.249884 0.01046,0.06069 0.379908,0.08429 0.332684,0.166489 -0.04781,0.0837 0.01318,0.32252 0.04721,0.393657 0.03705,0.07206 1.643079,0.321926 1.643079,0.321926 l 0.739489,0.09505 c 0,0 0.784024,-0.07206 0.831851,-0.07206 0.04721,0 0.549086,0.04872 0.596317,0.03494 0.04661,-0.01047 0.761309,0.774462 0.761309,0.774462 l 0.666852,0.334778 0.153938,-0.01257 -0.379013,0.167091 c 0,0 0.129129,0.297703 0.129129,0.332978 0,0.03584 0.667455,0.51232 0.667455,0.51232 0,0 0.237626,-0.155729 0.273195,-0.155729 0.03644,0 0.202961,-0.05918 0.215211,-0.142576 0.01167,-0.08309 -0.03644,-0.320728 0.02334,-0.344634 0.06069,-0.02394 0.142275,-0.09595 0.156325,0.01197 0.01047,0.106405 0.15573,1.13045 0.13092,1.141511 -0.02598,0.01408 0.202058,0.774763 0.202058,0.810332 0,0.03584 0.297711,0.965165 0.308772,1.000734 0.01227,0.03524 0.499768,1.082925 0.535337,1.118795 0.03501,0.03584 0.51232,1.273335 0.51232,1.273335 0,0 0.2744,0.51232 0.262142,0.59631 -0.01167,0.08339 0.09565,0.487812 0.167385,0.535638 0.07115,0.04751 0.391866,0.166791 0.391866,0.166791 0,0 0.178144,-0.15573 0.191298,-0.20236 0.01077,-0.04721 0.142576,-0.261539 0.188904,-0.332677 0.04811,-0.07266 0.264537,-0.09505 0.275296,-0.04811 0.01107,0.04811 0.26244,0.16679 0.26244,0.16679 l -0.02598,0.582863 c 0,0 0.04902,0.379909 0.08401,0.525172 0.03765,0.142584 0.334168,0.261548 0.334168,0.261548 l 0.357193,-0.321323 0.154238,-0.549086 -0.355995,-0.534743 c 0,0 -0.273203,-0.297409 -0.309366,-0.334175 -0.03614,-0.03433 -0.264243,-0.06995 -0.264243,-0.06995 0,0 0.02598,0.119265 0.04902,0.165895 0.02477,0.04781 -0.04902,0.06038 -0.04902,0.06038 l -0.273195,-0.106706 0.04781,-0.312355 c 0,0 0.204746,-0.03494 0.239727,-0.03494 0.03463,0 -0.01438,-0.475855 -0.01438,-0.475855 0,0 0.07386,-0.844402 0.09775,-0.868316 0.02394,-0.02477 -0.03614,-0.857262 -0.131527,-0.89253 -0.09415,-0.03584 0,-0.309366 0.04811,-0.321616 0.04721,-0.01257 0.511424,-0.178454 0.511424,-0.178454 l 0.260945,-0.512018 c 0,0 0.465691,-0.322219 0.50126,-0.346133 0.03501,-0.02394 0.570311,-0.594224 0.570311,-0.666852 0,-0.07025 0.06099,-0.248988 0.202954,-0.2744 0.143178,-0.02244 0.405915,-0.213119 0.405915,-0.213119 v -0.393356 c 0,0 0.04721,-0.190402 0.154231,-0.237626 0.106111,-0.04781 0.380511,-0.084 0.380511,-0.084 0,0 0.06039,0.155135 0.02394,0.178446 -0.03614,0.02455 0.606783,-0.178446 0.606783,-0.178446 0,0 0.285453,0 0.333272,-0.01137 0.04872,-0.01257 0.191298,-0.225678 0.191298,-0.225678 0,0 -0.06099,-0.191592 0.02183,-0.144367 0.08489,0.04932 0.287547,0.263038 0.264236,0.298907 -0.02537,0.03411 0.118068,0.272895 0.08339,0.367945 -0.03674,0.09506 0.547294,0.739496 0.547294,0.739496 0,0 0.284557,-0.131816 0.26154,-0.03644 -0.02477,0.09506 -0.08279,0.393657 -0.08279,0.393657 0,0 0.178739,0.118369 0.249282,0.130627 0.07175,0.01167 0.274099,0.404417 0.274099,0.404417 0,0 -0.04781,0.356289 -0.04781,0.404116 0,0.04781 0.02568,0.393657 0.01167,0.45344 -0.01167,0.05918 0.488113,0.16798 0.488113,0.16798 0,0 0.403521,-0.324011 0.427434,-0.360475 z M 62.449452,25.561623 62.84311,25.22805 l 0.084,-0.321925 c 0,0 0.368246,0.06008 0.379307,0.107609 0.01167,0.04691 0.09655,-0.107609 0.190101,-0.02364 0.09625,0.08309 0.215513,0.07025 0.227771,0.142275 0.01047,0.07175 0.08279,0.155135 0.09445,0.107308 0.01167,-0.04781 0.01167,-0.202359 0.01167,-0.202359 0,0 -0.106111,-0.05918 -0.166496,-0.09625 -0.06009,-0.03524 -0.04751,-0.142576 0.01227,-0.176955 0.05858,-0.03557 0.225376,-0.13271 0.273496,-0.09624 0.04781,0.03467 0.262443,-0.04753 0.262443,-0.04753 0,0 0.03554,-0.07264 0.05888,-0.106709 0.02477,-0.03707 0.143773,-0.357789 0.143773,-0.357789 0,0 -0.08489,-0.03557 -0.108205,-0.143175 -0.02394,-0.106411 0.131523,-0.416374 0.167988,-0.427733 0.03411,-0.01226 0.500363,-0.286649 0.500363,-0.286649 0,0 0.178153,-0.191 0.106714,-0.249585 -0.07206,-0.06038 -0.607378,-0.32192 -0.607378,-0.381402 0,-0.05948 -0.05948,-0.369147 -0.02477,-0.487513 0.03614,-0.118665 0.251082,-0.345833 0.286349,-0.393657 0.03614,-0.04633 0.298012,-0.36825 0.345839,-0.35749 0.04781,0.01285 0.225971,-0.02391 0.2726,-0.04663 0.04872,-0.02481 0.464192,-0.214912 0.393055,-0.22657 -0.07115,-0.01196 0.02424,-0.225971 -0.01227,-0.214314 -0.03554,0.01165 0.03644,-0.273498 0.11986,-0.297111 0.08279,-0.02361 0.225369,-0.13092 0.262737,-0.13092 0.03351,0 0.321323,0.01196 0.39246,0.02361 0.07115,0.01196 0.321022,-0.106709 0.356591,0 0.03554,0.107008 0.130024,0.130919 0.04781,0.16649 -0.08339,0.03587 -0.273798,0.202657 -0.393063,0.309067 -0.118361,0.106708 -0.47645,0.34643 -0.524276,0.35719 -0.04661,0.01255 -0.07266,0.03557 -0.167084,0.09595 -0.09505,0.05828 -0.09505,-0.0831 -0.117774,0.142279 -0.02477,0.22657 -0.05948,0.476155 -0.01288,0.560446 0.04781,0.0831 0.0828,0.214015 0.03554,0.273796 -0.04721,0.05978 -0.01227,0.09535 0,0.202358 0.01227,0.107008 0.157522,0.154236 0.167679,0.20206 0.01107,0.04753 0.201463,0.142577 0.201463,0.142577 0.09505,-0.01076 0.204753,-0.02302 0.226573,0.02481 0.02477,0.04753 0.07266,0.02391 0.07266,0.02391 l 0.200568,-0.04872 c 0,0 0.203556,-0.118964 0.275295,-0.107007 0.07115,0.01196 0.165887,-0.02361 0.249282,0 0.0834,0.02391 0.439986,-0.09505 0.48901,-0.08339 0.04721,0.01315 0.379607,-0.130622 0.404416,-0.0828 0.02394,0.04753 0.202661,0.03557 0.202661,0.03557 l 0.14317,0.107008 c 0,0.07114 -0.14317,0.237628 -0.178144,0.262438 -0.03614,0.02332 -0.154834,0.11986 -0.226273,0.09505 -0.07115,-0.02302 -0.120161,0.01196 -0.215211,-0.02302 -0.09535,-0.03646 -0.274091,-0.08489 -0.322219,-0.08489 -0.04751,0 -0.60588,0.132713 -0.60588,0.132713 l -0.284851,0.0825 -0.04932,0.167387 0.03614,0.03557 0.285754,0.178147 c 0,0.06008 0.11986,0.02391 0.09505,0.166788 -0.02334,0.142578 -0.03554,0.20206 -0.07115,0.273199 -0.03644,0.07174 -0.178739,0.202658 -0.214308,0.118964 -0.03554,-0.0831 -0.213419,-0.237927 -0.261547,-0.273498 -0.04661,-0.03557 -0.189499,-0.01196 -0.274987,-0.01196 -0.0828,0 -0.249884,0.119263 -0.249884,0.250183 0,0.130622 -0.0828,0.298904 -0.04781,0.427732 0.03614,0.132711 0.1916,0.299502 0.120462,0.382294 -0.07266,0.0837 -0.238229,0.143179 -0.309366,0.178446 -0.07115,0.03584 -0.239125,0.154834 -0.298012,0.178446 -0.05948,0.02364 -0.238229,0.09506 -0.274392,0.01197 -0.03501,-0.08369 -0.106714,-0.214316 -0.106714,-0.214316 0,0 -0.05948,-0.118362 -0.08429,-0.08279 -0.02123,0.03433 -0.154231,0.04781 -0.154231,0.04781 L 64.3684,25.276132 c 0,0 -0.167988,0.118663 -0.202954,0.142576 -0.03674,0.02364 -0.214918,0.02364 -0.286357,0.05918 -0.07115,0.03614 -0.285746,0.214609 -0.344634,0.131214 -0.06039,-0.08279 -0.09475,0.05948 -0.168281,-0.07145 -0.06965,-0.130619 -0.04691,-0.273797 -0.13092,-0.249282 -0.0822,0.02394 -0.274099,0.07115 -0.296514,0.118663 -0.02477,0.04751 -0.04841,0.04751 -0.09446,0.09505 -0.04781,0.04721 -0.393657,0.08309 -0.393657,0.08309 v -0.02364 z m 9.86385,8.816486 c -0.08907,0.232552 -0.08907,0.535639 -0.21491,0.768183 -0.125545,0.231053 -0.179048,0.355995 -0.267819,0.500664 -0.08967,0.141085 -0.08967,0.338362 -0.23195,0.427434 -0.142583,0.08997 -0.356598,0.214617 -0.481833,0.125545 -0.124047,-0.08967 -0.624711,-0.07145 -0.679713,-0.05353 -0.05293,0.01792 -0.659384,-0.01792 -0.731417,0.106111 -0.07115,0.125537 -0.533847,0.03644 -0.607672,0 -0.07115,-0.03531 -0.945732,-0.393062 -1.016877,-0.410101 -0.07115,-0.01762 -0.519496,-0.213713 -0.591529,-0.267217 -0.07115,-0.05414 -0.516808,-0.108506 -0.53414,-0.161708 -0.01822,-0.05383 0.03554,-0.124942 -0.03705,-0.107007 -0.06995,0.01641 -0.588841,0.178446 -0.659978,0.230752 -0.07266,0.05557 -0.231054,0.198173 -0.231054,0.198173 0,0 -0.216107,0.214014 -0.198172,0.374525 0.01912,0.160812 0.21491,0.285754 0.143773,0.374827 -0.07115,0.08907 -0.321029,0.196087 -0.321029,0.196087 0,0 -0.269612,-0.249591 -0.357487,-0.28516 -0.08937,-0.03584 -0.927797,-0.160511 -0.927797,-0.160511 l -0.339559,-0.392761 c 0,0 -0.535639,-0.357486 -0.589436,-0.375421 -0.05414,-0.01762 -0.643248,0 -0.733518,-0.07115 -0.08967,-0.07266 -0.37512,-0.446867 -0.517402,-0.428631 -0.143171,0.01762 -0.08907,-0.214316 -0.03554,-0.249884 0.05323,-0.03554 0.214014,-0.339258 0.19638,-0.392762 -0.01852,-0.05406 0.08907,-0.35659 -0.08907,-0.445662 -0.178446,-0.09147 -0.05414,-0.394855 -0.05414,-0.394855 0,0 0.179048,-0.03554 0.107609,-0.03554 -0.07145,0 -0.339257,0.01792 -0.411291,-0.07115 -0.07025,-0.08937 -0.09027,-0.124641 -0.159615,-0.08937 -0.07296,0.03614 -0.519495,0.107301 -0.572404,0.08937 -0.05406,-0.01762 -0.481834,0.03554 -0.553272,0.03554 -0.07115,0 0.01792,0.01822 -0.07115,0 -0.09057,-0.01792 -0.448057,0.143773 -0.465397,0.214022 -0.01641,0.07145 -0.37393,-0.01641 -0.428029,0 -0.05436,0.01792 -0.571802,0.01792 -0.571802,0.01792 l -0.857857,0.14287 c 0,0 -0.571207,0.287546 -0.588841,0.376626 -0.01792,0.08937 -0.196682,0.232243 -0.249884,0.266916 -0.05293,0.03614 -0.374232,0 -0.393959,-0.05323 -0.01672,-0.05353 -0.589142,0.01852 -0.589142,0.01852 0,0 -0.231648,-0.125838 -0.303087,-0.07175 -0.07115,0.05353 -0.07115,-0.232846 -0.07115,-0.232846 l 0.08907,-0.212523 0.321022,-0.214911 0.769079,-0.144074 0.375127,-0.248988 0.231054,-0.08937 0.142282,-0.374525 c 0,0 0.268113,-0.05353 0.250178,-0.107903 -0.01762,-0.05353 -0.08788,-0.30369 -0.08788,-0.30369 l 0.516807,-0.803156 0.732012,-0.357487 0.125243,-0.250185 c 0,0 -0.07025,-0.321022 -0.01762,-0.375421 0.05323,-0.05383 0.535638,-0.161113 0.535638,-0.161113 l 0.607672,0.196681 c 0,0 0.321022,-0.21372 0.392159,-0.249583 0.07115,-0.03614 0.411291,-0.231957 0.411291,-0.231957 0,0 0.03471,-0.160511 0.106413,-0.142869 0.07145,0.01762 0.375127,-0.05353 0.411592,0.08937 0.03554,0.142877 0.303388,0.589744 0.303388,0.589744 l 0.410395,0.428925 0.393657,0.303689 0.482429,0.177844 c 0,0 0.285159,0.250185 0.338362,0.26812 0.05353,0.01732 0.321021,0.321918 0.321021,0.321918 l 0.142584,0.248988 c 0,0 -0.08878,0.197277 -0.160217,0.286951 -0.07115,0.08818 -0.285453,0.321323 -0.339258,0.302191 -0.05376,-0.01641 -0.46539,-0.08788 -0.46539,-0.08788 l -0.445971,0.05323 c 0,0 -0.07025,0.107308 0.05444,0.19638 0.124942,0.08907 0.267518,0.07175 0.391858,0.142877 0.127035,0.07115 0.448057,0.214911 0.448057,0.214911 0,0 0.214918,0.03471 0.214918,0.08787 0,0.05383 0.07055,-0.142877 0.05263,-0.267518 -0.01762,-0.124641 -0.03614,-0.284858 0.08907,-0.321022 0.125838,-0.03554 0.321322,0 0.321322,-0.05406 0,-0.05323 0.05466,-0.125544 0.05466,-0.125544 l 0.16051,-0.194882 -0.01792,-0.124649 0.161709,-0.127028 c 0,0 -0.08907,-0.104921 -0.161709,-0.195484 -0.07055,-0.08967 -0.142575,-0.143179 -0.09087,-0.232552 0.05466,-0.08877 0.232551,-0.214316 0.323717,-0.142576 0.08877,0.07115 0.355995,0.106706 0.338061,0.196682 -0.01702,0.08847 0,0.213118 0.03644,0.142877 0.03441,-0.07206 0.01792,-0.357795 0.01792,-0.357795 0,0 -0.14317,-0.195779 -0.268414,-0.213714 -0.123745,-0.01852 -0.447763,-0.178746 -0.536233,-0.214315 -0.08878,-0.03584 -0.248988,-0.124641 -0.248988,-0.124641 0,0 0.07055,-0.196381 -0.03494,-0.178446 -0.108205,0.01762 -0.429227,-0.03674 -0.429227,-0.08937 0,-0.05466 -0.321917,-0.30518 -0.338361,-0.357494 -0.01792,-0.05466 -0.304585,-0.447161 -0.304585,-0.447161 0,0 -0.161701,-0.160511 -0.17874,-0.214015 -0.01852,-0.05376 -0.03554,-0.14317 -0.07145,-0.285453 -0.03674,-0.142877 0.35659,-0.500062 0.338956,-0.44686 -0.01822,0.05263 0.08967,0.124943 0.162009,0.285453 0.07025,0.161407 0.35629,0.428925 0.392159,0.53594 0.03524,0.106706 0.429226,0.411291 0.517102,0.445964 0.09087,0.03524 0.142583,0.143472 0.321925,0.214609 0.179342,0.07175 0.162001,0.106111 0.393657,0.214015 0.231054,0.107308 0.267518,0.144074 0.30189,0.19638 0.03704,0.05444 0.178747,0.03674 0.233448,0.125839 0.05323,0.08878 0.124641,0.107007 0.124641,0.196087 0,0.08877 0.07266,0.08877 0.03494,0.267518 -0.03494,0.178445 -0.08818,0.231949 -0.06995,0.267518 0.01792,0.03644 0.339559,0.69764 0.464802,0.69764 0.124641,0 0.499167,0.142877 0.445663,0.356297 -0.05323,0.214014 0.231648,0.500069 0.231648,0.500069 0,0 0.238831,0.01521 0.403822,0.04277 0.0068,-0.124648 -0.01943,-0.324613 0.115975,-0.400238 0.15902,-0.08937 0.391564,-0.179342 0.355401,-0.267518 -0.03644,-0.08907 -0.07206,-0.250479 -0.214316,-0.356892 -0.141085,-0.106706 -0.285754,-0.162302 -0.321323,-0.338956 -0.03494,-0.179048 -0.08937,-0.412187 0.07115,-0.340154 0.16051,0.07085 0.303689,0.411894 0.376618,0.178145 0.07025,-0.231649 0.248394,-0.392762 0.373035,-0.338957 0.12644,0.05353 0.358683,0.142576 0.340748,0.214015 -0.01822,0.07145 0.160519,0.643842 0.160519,0.643842 0,0 0.07115,0.05406 0.106706,0.321323 0.03554,0.267217 0.267518,0.338957 0.232544,0.42833 -0.03614,0.08848 -0.143773,0.141981 0.143178,0.178446 0.284256,0.03584 0.553573,0.08877 0.553573,0.16021 0,0.07175 0.23195,0.108807 0.26782,0.161407 0.03494,0.05383 0.249282,0.160518 0.285453,0.05383 0.03554,-0.106112 0.107301,-0.322219 0.160804,-0.286349 0.05353,0.03704 0.499769,0.03704 0.53594,0.180539 0.03704,0.140783 0.339853,0.140783 0.339853,0.178746 0,0.03433 0.267819,-0.08937 0.267819,-0.08937 0,0 0.374525,-0.286349 0.481833,-0.232846 0.106707,0.05353 0.4095,-0.197578 0.373931,0.03464 -0.04186,0.232242 0.191298,0.447161 0.101624,0.678809 z m 1.784458,-3.143281 c -0.05263,0.05414 -0.393062,0.392762 -0.393062,0.392762 l -0.67881,-0.08967 h -0.463899 l -0.392761,-0.14228 c 0,0 -0.268414,-0.08907 -0.321616,-0.143171 -0.05444,-0.05353 -0.392468,-0.179048 -0.392468,-0.179048 l -0.71498,0.161114 -0.554169,0.161105 -0.195183,0.177851 -0.661176,-0.160217 -0.39246,-0.19608 -0.215513,-0.232845 h 0.196682 l -0.06995,-0.285453 0.03441,-0.19608 0.177843,-0.10791 0.125846,-0.517403 0.21491,-0.08937 0.05293,-0.267217 c 0,0 0.179048,-0.161708 0.233146,-0.215212 0.05353,-0.05293 0.231949,-0.303982 0.231949,-0.303982 l 0.427435,0.17904 c 0,0 0.446566,0.05406 0.375428,0.07236 -0.07266,0.01732 -0.286356,0.268121 -0.286356,0.268121 0,0 0.160812,0.08788 0.234645,0.142576 0.06965,0.05353 0.231347,0.141981 0.195183,0.249884 -0.03614,0.106706 0.26782,0.08907 0.26782,0.08907 l 0.107308,-0.178446 0.499166,-0.124641 0.178747,-0.09027 -0.286055,-0.08788 c 0,0 -0.249884,-0.09027 -0.213713,-0.144066 0.03614,-0.05414 0.267819,-0.410998 0.267819,-0.410998 0,0 0.589737,-0.177843 0.642646,-0.177843 0.05233,0 0.411885,-0.07145 0.411885,-0.07145 0,0 -0.285754,0.285453 -0.32252,0.339552 -0.03704,0.05414 0.01852,0.231354 -0.07115,0.303689 -0.08848,0.07115 -0.215212,0.143472 -0.267819,0.161708 -0.05474,0.01641 -0.01882,0.195778 0.03494,0.214014 0.05496,0.01822 0.232845,0.08907 0.232845,0.08907 l 0.786118,0.410094 0.481834,0.481834 0.376325,0.305188 c -0.01197,-0.0015 0.146461,0.159313 0.09266,0.212516 z m 4.537372,2.356569 -0.448359,0.05353 c 0,0 -0.392159,-0.160812 -0.408896,-0.231655 -0.01943,-0.07115 -0.108205,-0.23195 -0.16201,-0.196381 -0.05323,0.03614 -0.231648,0.05383 -0.284858,0.03614 -0.05323,-0.01822 -0.251375,-0.178747 -0.251375,-0.250186 0,-0.07085 -0.05436,-0.231354 0.03554,-0.303689 0.09027,-0.07115 0.268715,-0.195477 0.232551,-0.250479 -0.03441,-0.05293 -0.05414,-0.28336 -0.05414,-0.321022 0,-0.03584 0,-0.07085 0.108205,-0.08907 0.106706,-0.01822 0.106706,-0.01822 0.106706,-0.01822 0,0 0.03554,-0.106412 -0.01822,-0.16021 -0.05323,-0.05383 -0.375723,-0.286055 -0.411291,-0.339257 -0.03351,-0.05323 -0.428632,-0.428037 -0.481842,-0.483332 -0.05293,-0.05233 -0.285453,-0.212818 -0.285453,-0.212818 l -0.124942,-0.268715 0.106714,-0.338957 -0.320427,-0.07145 -0.07115,-0.231355 v -0.05406 l 0.33806,-0.392166 c 0,0 0.233147,-0.124641 0.286048,-0.09056 0.05353,0.03704 0.177851,-0.106714 0.198474,-0.160217 0.01581,-0.05474 0.354798,-0.286651 0.427434,-0.322219 0.07085,-0.03524 0.195485,-0.19608 0.267819,-0.106706 0.07055,0.08877 0.516808,0.232544 0.516808,0.232544 0,0 0.162001,0.03531 0.142576,0.105817 -0.01732,0.07266 -0.160511,0.53713 -0.160511,0.53713 0,0 -0.320427,-0.08937 -0.355996,-0.07145 -0.03463,0.01702 -0.284858,0.107308 -0.231655,0.249884 0.05323,0.142878 -0.19608,0.05353 -0.17874,0.124943 0.01702,0.07085 0.05323,0.178144 0.107301,0.214014 0.05384,0.03554 0.355996,0.19608 0.392167,0.303388 0.03494,0.107903 0.534742,0.429226 0.534742,0.429226 0,0 0.05406,0.03524 0.03614,0.107903 -0.01672,0.07115 -0.05353,0.445964 0,0.445964 0.05353,0 0.177851,-0.01822 0.177851,-0.01822 0,0 0.162303,-0.338663 0.216108,-0.302793 0.05323,0.03524 0.267819,0.195786 0.321322,0.320728 0.05233,0.124942 0.160511,0.249282 0.106706,0.285152 -0.05474,0.03531 -0.303982,0.01792 -0.375127,0.01792 -0.07025,0 -0.196675,-0.08937 -0.232243,-0.05383 -0.03674,0.03584 -0.106714,0.124942 -0.05383,0.231656 0.05383,0.108204 0.161708,0.268414 0.215806,0.305179 0.05263,0.03501 0.105517,0.01611 0.267518,0.160812 0.160519,0.142878 0.213721,0.213413 0.160519,0.374526 -0.05384,0.160511 -0.01822,0.303689 0,0.35659 0.01762,0.05353 0.05323,0.178446 0.08967,0.23195 0.03471,0.05383 0.03471,0.124648 0.03471,0.124648 l -0.526068,0.08937 z M 72.190747,19.312429 c -0.006,-0.0024 -0.01318,-0.0024 -0.01551,-0.0024 -0.006,0.0024 0.003,0.0024 0.01498,0.0024 z m 43.394953,3.701034 c 10e-4,-0.0027 -0.002,-0.0075 -0.005,-0.01106 0,0.01226 0,0.01824 0.003,0.01106 z M 83.381737,16.98755 c 0,0 0.0075,-0.0018 0.02183,-0.0087 -0.01227,-0.01106 -0.02063,-0.01943 -0.02183,-0.02481 -0.01197,-0.04872 0,0.03348 0,0.03348 z m -5.060452,39.88581 c 0,0 -0.382002,0.429821 -0.404718,0.502155 -0.02507,0.07025 -0.333279,0.451348 -0.382596,0.57001 -0.04781,0.118964 -0.427434,0.380511 -0.427434,0.380511 l -0.690774,0.286048 c 0,0 -0.237626,0.02394 -0.166783,0.120462 0,0 -0.04781,0.189206 -0.213419,0.404116 -0.167385,0.213721 0,0.499174 0,0.499174 l 0.09415,0.476149 v 0.453139 c 0,0 -0.143178,0.50007 -0.214315,0.523388 -0.07055,0.02455 -0.1898,0.167084 -0.260945,0.405607 -0.07236,0.237634 -0.04781,0.404424 -0.04781,0.404424 0,0 0.04781,0.357186 -0.02455,0.429226 -0.07266,0.07115 0.118963,0.427728 0.191599,0.54819 0.07115,0.118068 0.261841,0.189206 0.261841,0.189206 0,0 0.165593,0.143471 0.237627,0.190402 0.07115,0.04781 0.428036,-0.09326 0.428036,-0.09326 0,0 0.262737,-0.118963 0.333272,-0.167686 0.07175,-0.04872 0.119867,-0.07115 0.261547,-0.309366 0.143773,-0.238229 0.04872,-0.167084 0.07115,-0.238229 0.02537,-0.07115 0.166489,-0.381701 0.239125,-0.786118 0.07115,-0.405011 0.09565,-0.381098 0.190402,-0.73799 0.09445,-0.357494 0.213713,-0.45344 0.237627,-0.737696 0.02394,-0.286055 0.04721,-0.405915 0.07055,-0.501862 0.02447,-0.09446 0.263633,-0.451347 0.286349,-0.690171 0.02334,-0.237032 0.02334,-0.356891 -0.02274,-0.451347 -0.04721,-0.09655 0.285754,-0.02537 0.332383,-0.167988 0.04872,-0.14317 0,0 0.02455,-0.07025 0.02425,-0.07266 0.04872,-0.524276 0.04872,-0.785816 0,-0.261841 -0.262142,-0.668351 -0.288442,-0.738299 -0.02394,-0.07175 -0.164396,0.09565 -0.164396,0.09565 z M 102.1081,53.421014 c 0.0727,-0.190403 0,-0.214316 -0.0469,-0.309366 -0.0472,-0.09505 0.0941,-0.523087 0.28545,-0.690473 0.1904,-0.167084 -0.0951,-0.191599 -0.0951,-0.191599 l -0.28575,0.04781 -0.26214,-0.500062 c 0,0 -0.45254,-0.355996 -0.59482,-0.45195 -0.14318,-0.09445 0.21282,-0.286048 0.21282,-0.286048 0,0 -0.80764,-0.76191 -0.90329,-0.76191 -0.0951,0 -0.572404,-0.380504 -0.643542,-0.405313 -0.07115,-0.02304 -0.451942,-0.666559 -0.451942,-0.666559 L 97.702864,48.39641 c 0,0 -0.21372,0.191298 -0.21372,0.285461 0,0.09534 0.286055,0.142869 0.286055,0.142869 0,0 0.09446,0.07115 0.1898,0.119265 0.09506,0.04781 0.380511,0.285453 0.404718,0.453139 0.02304,0.165895 0.07176,0.26154 0.238229,0.403521 0.167686,0.143179 0.451942,0.215807 0.451942,0.215807 0,0 0.120462,0.404123 0.215814,0.451949 0.09445,0.04781 0.166489,0.261239 0.212817,0.381099 0.04811,0.118964 0.50126,0.856961 0.475555,1.118802 -0.02274,0.262142 0.335376,0.881771 0.335376,0.881771 0,0 0.80973,0.642043 0.83364,0.73799 0.0233,0.09446 0.61664,0.261841 0.61664,0.261841 0,0 0.29293,-0.245104 0.36466,-0.433413 z m 5.52375,-4.88111 c 0,-0.09505 -0.26214,-0.308771 -0.33417,-0.404718 -0.0712,-0.09595 -0.49918,-0.476751 -0.59423,-0.547888 -0.0945,-0.07115 0,0 -0.14257,0.26303 -0.14258,0.26154 -0.30997,0.570906 -0.38201,0.594225 -0.0718,0.02394 -0.59422,0.356891 -0.73799,0.52338 -0.14258,0.16649 -0.42743,0.595716 -0.52249,0.526069 -0.0951,-0.07266 -0.50185,0.307281 -0.50185,0.307281 l -0.21372,0.523975 -0.66716,-0.141981 0.0472,0.214918 c 0,0 -0.21312,0.331781 -0.16528,0.404711 0.0478,0.07145 0,0.333881 0.0712,0.47526 0.0705,0.144074 0.14258,0.238824 0.26155,0.333874 0.11896,0.09505 0.14257,0.404719 0.0711,0.642947 -0.0714,0.238229 0.096,0.285453 0.1904,0.382002 0.0951,0.09445 0.30907,0.118964 0.40472,0.04631 0.0951,-0.07176 0.28605,-0.09416 0.40651,-0.02304 0.11657,0.07115 0.42803,0.07115 0.52248,0.190402 0.0951,0.118964 0.47645,0.04721 0.547,0.118964 0.0726,0.07115 0.45344,-0.07175 0.54789,-0.168281 0.0941,-0.09326 0,-0.283367 0,-0.594224 0,-0.309367 0.0478,-0.285453 0.21551,-0.404718 0.16649,-0.118964 0.28545,-0.214316 0.30877,-0.379909 0.0248,-0.167686 0.0721,-0.453139 0.0721,-0.59631 0,-0.143178 0.38109,-0.11867 0.45164,-0.16679 0.0736,-0.04781 -0.0478,-0.142576 -0.0478,-0.213714 0,-0.07236 -0.30937,-0.405019 -0.37991,-0.524284 -0.0712,-0.11986 0.11836,-0.71498 0.23673,-0.810031 0.12553,-0.09863 0.33776,-0.478242 0.33776,-0.573895 z m -3.33279,6.405519 c 0.0709,0.02394 0.23734,0.02394 0.59333,0.118963 0.35928,0.09505 0.69256,0.119567 0.73949,0.214316 0.0478,0.09446 0.356,0 0.50066,-0.02334 0.14258,-0.02455 0.47706,-0.334175 0.69077,-0.09565 0.21462,0.238229 0.64235,0.07115 0.71409,0.118964 0.0711,0.04631 0.28724,-0.118964 0.54759,-0.09446 0.26244,0.02274 0.28635,0.09446 0.35749,0.09446 0.0712,0 0.30936,0.07175 0.42863,0.04631 0.11926,-0.02304 0.26154,-0.165594 0.47615,-0.141078 0.21551,0.02274 0.78523,-0.167988 0.78523,-0.167988 0,0 0,0.02424 -0.14109,0.119265 -0.14377,0.09505 -0.62023,0.451641 -0.62023,0.451641 0,0 -0.0718,-0.04691 -0.096,0.09655 -0.023,0.142576 -0.16559,0.428925 -0.023,0.308471 0.14348,-0.117473 0.64355,-0.546699 0.76281,-0.64175 0.11777,-0.09505 0.16559,-0.143472 0.28486,-0.214911 0.11896,-0.07115 0.3805,-0.143178 0.3805,-0.143178 l 0.16769,-0.118964 c 0,0 -0.14347,-0.09445 -0.21551,-0.07115 -0.07,0.02477 -0.19041,-0.09446 -0.356,-0.02334 -0.16738,0.07115 -0.61903,0.142583 -0.61903,0.142583 0,0 -0.28605,0.04811 -0.45254,-0.02304 -0.16649,-0.07115 -0.35809,-0.190704 -0.42893,-0.09595 -0.0712,0.09595 -0.47585,0.214316 -0.54849,0.214316 -0.0703,0 -0.33268,-0.02394 -0.52308,-0.07085 -0.1907,-0.04721 -0.23853,-0.04721 -0.33358,-0.04721 -0.0951,0 -0.0951,-0.07115 -0.35689,-0.09595 -0.26274,-0.02334 -0.33537,-0.09445 -0.40412,-0.07115 -0.0739,0.02477 -0.1904,0.04781 -0.28545,0.09595 -0.0962,0.04631 -0.3832,0.04631 -0.45254,-0.02477 -0.0727,-0.07115 -0.78762,-0.213714 -0.78762,-0.213714 0,0 -0.0944,-0.118963 0.12046,-0.190402 0.21372,-0.07115 0.16709,-0.07115 0.14198,-0.165894 -0.0233,-0.09684 -0.3814,-0.09684 -0.47525,-0.07115 -0.0951,0.02214 -0.33478,0.07115 -0.42983,-0.02568 -0.0944,-0.09326 -0.38051,-0.334175 -0.47496,-0.190703 -0.096,0.143178 -0.0478,0.334175 -0.14378,0.310864 -0.0944,-0.02334 -0.73888,0.04721 -0.73888,-0.02334 0,-0.07115 -0.1665,-0.262737 -0.23823,-0.287546 -0.0712,-0.02304 -0.0472,-0.09416 -0.16589,-0.143472 -0.11956,-0.0451 -0.3572,0.02455 -0.3572,0.02455 l -0.23762,0.02477 -0.28635,0.332685 c 0,0 0.66685,0.07236 0.73829,0.167084 0.0711,0.09565 0.42863,0.380504 0.42863,0.380504 0,0 0.47526,0.118963 0.59512,0.142583 0.12554,0.03584 0.67253,0.05677 0.74427,0.08369 z m -0.78312,-13.359535 c -0.0739,-0.04721 -0.26274,-0.04721 -0.26274,-0.04721 l -0.23853,0.09476 -0.11897,-0.04751 -0.26273,0.357795 c 0,0 0.0717,0.404116 0.14318,0.404116 0.0714,0 0.33328,0 0.33328,0 l 0.26303,-0.190101 0.14348,-0.356598 c 0,0 0.0687,-0.167385 0,-0.215212 z m 3.85586,-0.952306 0.14318,-0.286349 c 0,0 0.0718,-0.285754 0.0948,-0.356891 0.0242,-0.07266 0.11837,-0.286349 0.0487,-0.405313 -0.0717,-0.118964 -0.0245,-0.28516 -0.0717,-0.380511 -0.0481,-0.09445 -0.0718,-0.237928 -0.0718,-0.237928 l -0.23822,0.09476 c -0.0951,0.09505 -0.23764,0.523682 -0.23764,0.523682 0,0 -0.0953,0.430122 -0.0242,0.523079 0.0712,0.09714 0.26184,0.358089 0.26184,0.358089 l 0.0956,0.167385 z m 2.99801,7.168024 c 0.21432,0.07206 0.28606,0.02537 0.26154,-0.07236 -0.0233,-0.09505 -0.0951,-0.594217 -0.14257,-0.784025 -0.0478,-0.190402 0.28545,-0.334175 -0.0712,-0.619033 -0.35659,-0.286944 -0.33267,-0.26154 -0.35659,-0.286944 -0.0242,-0.02394 -0.0242,-0.26154 -0.0242,-0.26154 0,0 0.0712,-0.237634 0.0242,-0.308771 -0.0472,-0.07115 -0.0953,-0.214316 -0.14318,-0.285453 -0.0478,-0.07176 -0.0478,-0.09505 -0.19099,-0.09505 -0.14259,0 -0.14259,-0.167092 -0.23764,-0.144074 -0.0945,0.02394 -0.33328,0.214014 -0.16708,-0.06995 0.16708,-0.287546 0.0724,-0.334778 0.0724,-0.382597 0,-0.04721 -0.12047,-0.118369 -0.23883,-0.141981 -0.11837,-0.02455 -0.21461,-0.167091 -0.3808,-0.119566 -0.16649,0.04902 -0.23763,-0.07055 -0.33328,-0.07055 -0.0951,0 -0.14258,-0.11986 -0.1659,-0.26154 -0.0245,-0.143171 0.0233,-0.429226 0.0233,-0.500062 0,-0.07236 0.14259,-0.286349 0.14259,-0.286349 0,0 0.0478,-0.09625 0,-0.262142 -0.0472,-0.166188 -0.14259,-0.452244 -0.14259,-0.570906 0,-0.118964 -0.26303,-0.238229 -0.26303,-0.238229 l -0.30996,0.118964 -0.11837,1.047958 c 0,0 -0.21402,0.07055 -0.18951,0.165593 0.0224,0.09595 0.0224,0.548491 0.14228,0.643542 0.11836,0.09416 0.30996,0.213713 0.30996,0.213713 0.0466,0.119567 -0.0705,0.356598 -0.0705,0.356598 0,0 0.28427,0.334771 0.30967,0.430423 0.0227,0.09445 0.16649,0.04631 0.16649,0.04631 0,0 -0.0712,-0.642646 0.0705,-0.524277 0.14317,0.119559 0.52368,0.09714 0.54699,0.238824 0.0249,0.143171 0.28635,0.285453 0.33269,0.429226 0.0478,0.142877 0.35808,0.190696 0.33536,0.30847 -0.0245,0.119559 -0.2155,0.119559 -0.33536,0.143171 -0.11778,0.02394 -0.49918,-0.260945 -0.49918,-0.260945 0,0 -0.0951,-0.02394 -0.11837,0.118068 -0.0233,0.143178 0.0472,0.499769 0.14259,0.618733 0.0945,0.119859 0.1904,0 0.23852,0.07115 0.0478,0.07266 0,0.239117 0.0718,0.33477 0.0702,0.09505 0.26094,0.118369 0.33327,0.07055 0.0712,-0.04661 0.30937,-0.166489 0.30937,-0.166489 0,0 -0.0251,-0.285453 -0.11957,-0.334175 -0.0951,-0.04721 -0.23822,-0.190403 -0.16588,-0.260644 0.0705,-0.07206 0.21312,-0.214617 0.28545,-0.191298 0.07,0.02394 0.23852,0.333573 0.21371,0.40471 -0.023,0.07115 0,0.09595 0.0959,0.356892 0.0942,0.26364 0.14258,0.215512 0.023,0.26364 -0.11896,0.04631 -0.23763,0.190402 -0.30996,0.237627 -0.0158,0.01107 -0.0182,0.01792 -0.0158,0.02244 -0.0173,-0.006 -0.0631,-0.01408 -0.17397,-0.02244 -0.31085,-0.02394 -0.23882,-0.16649 -0.31085,-0.02394 -0.0703,0.142576 -0.14259,0.26154 -0.14259,0.26154 l -0.16559,0.07115 c 0,0 -0.11986,0.380512 -0.096,0.499174 l 0.0233,0.121057 c 0,0 0.23822,-0.45344 0.31027,-0.45344 0.0702,0 0.0702,0.118964 0.16648,0.04721 0.0962,-0.07115 0.1916,-0.02274 0.1916,-0.02274 0,0 0.14258,-0.07236 0.11807,0.117466 -0.0218,0.190402 -0.0218,0.214315 0.0472,0.407104 0.0733,0.189213 0.26363,0.284859 0.33477,0.355996 0.0712,0.07115 0.16559,0.118964 0.21372,0.166489 0.0478,0.04721 0.0712,-0.214308 0.0478,-0.40471 -0.0358,-0.197277 -0.13151,-0.343746 0.0807,-0.269017 z m -1.6649,2.88144 c 0.26364,0.143178 0.42804,0.215211 0.64235,0.286349 0.21551,0.07115 0.42803,-0.143171 0.47645,-0.09475 0.0472,0.04691 0.26244,-0.167385 0.26244,-0.167385 0,0 0.16559,-0.238229 0.14258,-0.308771 -0.0239,-0.07296 -0.0481,-0.28665 -0.096,-0.214911 -0.0463,0.07055 -0.49977,0.33328 -0.59422,0.356297 -0.0945,0.02387 -0.33328,-0.07085 -0.54759,-0.07085 -0.21462,0 -0.73829,-0.167084 -0.81093,-0.09565 -0.069,0.07236 -0.28486,0.356892 -0.26154,0.477045 0.0246,0.118964 0,0.190403 0,0.262737 0,0.07115 -0.0711,0.404124 -0.0711,0.309367 l -0.33299,0.879376 c 0,0 0.26125,0.668057 0.23853,0.787315 -0.0251,0.118369 -0.0724,0.786125 0,0.713489 0.0724,-0.07236 0.42743,-0.118964 0.42743,-0.118964 0,0 0.12046,-0.428631 0.0971,-0.618732 -0.0245,-0.190403 -0.23973,-0.786118 -0.0493,-0.738299 0.1919,0.04781 0.38201,0.285461 0.38201,0.285461 0,0 -0.14348,0.144367 -0.0957,0.239117 0.0478,0.09476 0.21432,0.213721 0.19101,0.428036 -0.0239,0.214316 0.0712,0.309961 0.0712,0.237627 0,-0.07115 0.23852,0.04781 0.26244,0.09565 0.0203,0.04277 0.2457,-0.156633 0.28067,-0.154834 0.003,-0.07115 0.0382,-0.363171 -0.0197,-0.440287 -0.0721,-0.09505 -0.0721,-0.237634 -0.23703,-0.428036 -0.16798,-0.192488 0.0472,-0.238523 -0.11986,-0.45463 -0.16649,-0.212817 -0.23763,-0.14168 -0.16649,-0.212817 0.0705,-0.07206 0.21462,-0.119265 0.33358,-0.190704 0.11777,-0.07175 0.21371,-0.26154 0.21371,-0.26154 0.0239,-0.07115 0.0724,-0.04721 -0.11837,-0.09505 -0.1904,-0.04781 -0.35808,-0.09625 -0.47675,0.04781 -0.11836,0.141981 -0.23762,0.165894 -0.23762,0.165894 0,0 0,0 -0.0951,0.02394 -0.0951,0.02394 -0.0718,-0.142576 -0.14318,-0.166489 -0.0727,-0.02334 -0.0727,-0.04721 -0.11897,-0.213721 -0.0481,-0.167084 0,-0.429226 0.0724,-0.477949 0.0687,-0.0448 0.23315,-0.212222 0.49619,-0.06874 z m 0.61873,2.785794 c 0.003,-0.0081 0,-0.01107 -0.005,-0.01167 -0.003,0.01491 0,0.02394 0.003,0.01197 z m 9.3348,0 c -0.0227,-0.143178 -0.0478,-0.309366 -0.11718,-0.428036 -0.0733,-0.118964 -1.62156,-0.929891 -1.81196,-1.001028 -0.1904,-0.07115 -1.18814,-0.380805 -1.18814,-0.380805 0,0 -0.47795,0.190402 -0.47795,0.262436 0,0.07115 -0.23853,0.333279 -0.33417,0.429226 -0.0942,0.09446 -0.0708,0.189807 -0.21342,0.166489 -0.14347,-0.02387 -0.1659,0 -0.23972,-0.07176 -0.069,-0.07115 -0.14168,-0.310864 -0.23674,-0.381106 -0.096,-0.07115 -0.28575,-0.166489 -0.23972,-0.356891 0.049,-0.190403 0.11897,-0.451942 -0.0233,-0.451942 -0.14228,0 -0.356,0.09595 -0.40412,0.02274 -0.0478,-0.06995 -0.33268,-0.046 -0.33268,-0.046 l -0.59453,0.166489 -0.0739,0.02394 c 0,0 0.26305,0.499475 0.43072,0.451348 0.1665,-0.04691 0.47526,0.33358 0.47526,0.33358 0,0 -0.0945,0.214911 -0.0472,0.286048 0.0472,0.07115 0.23823,0.428933 0.23823,0.428933 l 0.3805,-0.02394 0.38081,0.166489 1.02464,0.33328 0.28695,0.332082 0.16649,0.71617 c 0,0 -0.42983,0.284858 -0.40532,0.404123 0.0233,0.119265 0.54789,-0.02304 0.54789,-0.02304 l 0.42803,0.213714 0.52249,0.261547 0.59691,0.02304 0.356,-0.404123 c 0,0 0.52308,-0.451943 0.52308,-0.356591 0,0.09535 0.47735,0.285453 0.54909,0.500063 0.0727,0.214315 0.50036,0.596317 0.50036,0.596317 0,0 0.59423,0.190403 0.66626,0.214316 0.0705,0.02214 0.23853,0.04721 0.40591,0.09446 0.16649,0.04751 -0.16768,-0.429528 -0.16768,-0.429528 0,0 -0.52458,-0.309366 -0.54789,-0.428631 -0.0233,-0.119265 -0.45194,-0.475261 -0.42804,-0.594518 0.0233,-0.118964 -0.19189,-0.261547 -0.0953,-0.261547 0.0953,0 0.47555,-0.04721 0.42833,-0.120154 -0.0472,-0.06995 -0.30937,-0.523381 -0.42833,-0.523381 -0.12256,-0.02093 -0.48123,-0.02093 -0.50515,-0.161414 z m 0.81003,8.046504 c 0,0 -0.26155,-0.118068 -0.28546,-0.07055 -0.0236,0.04781 -0.11986,-0.452537 -0.11986,-0.452537 l 0.0478,-0.261547 c 0,0 -0.71528,-0.905978 -0.7371,-0.833342 -0.026,0.07115 -0.26303,-0.738299 -0.26303,-0.738299 l -0.0709,-0.880867 -0.16679,-0.524276 -0.42803,0.04781 -0.0957,-0.85785 -0.23973,-0.809436 -0.11776,-0.04721 -0.23853,0.546993 c 0,0 -0.11896,0.762807 -0.16709,1.024648 -0.0478,0.261539 -0.0712,0.64324 -0.21371,0.881469 -0.14318,0.238221 -0.47675,0.808533 -0.47675,0.808533 0,0 -0.38111,0 -0.42923,-0.07115 -0.0472,-0.07115 -0.47526,-0.286055 -0.47526,-0.286055 l -0.26304,-0.404417 -0.42713,-0.332677 c 0,0 -0.28814,-0.358089 -0.31086,-0.334176 -0.023,0.02364 0.21581,-0.332684 0.28485,-0.380805 0.0739,-0.04721 0.0959,-0.284858 0.0959,-0.284858 l 0.38111,-0.310563 c 0,0 0.0714,-0.119258 0,-0.1898 -0.0718,-0.07206 -0.0718,-0.191299 -0.16649,-0.215814 -0.0957,-0.02334 -0.64354,0.239727 -0.64354,0.239727 l -0.45195,-0.215212 c 0,0 -0.33417,-0.167091 -0.40412,-0.286055 -0.0717,-0.118361 -0.26303,-0.1898 -0.31026,-0.142576 -0.0478,0.04781 0,0.285453 0,0.285453 0,0 0.0977,0.209828 0.13212,0.275289 -0.0437,-0.03704 -0.20356,0.0828 -0.20356,0.0828 l -0.45254,0.04631 -0.28635,0.261841 -0.21431,0.405614 -0.14228,0.285755 c 0,0 0.11836,0.190402 0.0712,0.166188 -0.0478,-0.02364 -0.69107,0.167091 -0.69107,0.167091 0,0 -0.16769,-0.356891 -0.23883,-0.42833 -0.0711,-0.07206 -0.28485,-0.190704 -0.3805,-0.190704 -0.0945,0 -0.33298,0.214617 -0.33298,0.214617 l -0.0942,0.499468 -0.35809,-0.09505 -0.31026,0.523682 -0.30668,0.11986 -0.16887,0.35659 -0.0945,-0.379909 -0.35719,0.332685 -0.11986,0.546398 c 0,0 -0.45254,0.42952 -0.50036,0.52457 -0.0472,0.09446 -1.04886,0.453441 -1.04886,0.453441 l -0.64115,0.213721 c 0,0 -0.33328,0.07115 -0.40501,0.07115 -0.0712,0 -0.69137,0.453139 -0.69137,0.453139 l -0.21253,0.213714 -0.0717,-0.190403 -0.26214,0.285453 v 0.595723 l -0.26214,0.356289 0.14317,0.547294 -0.21431,0.07236 -0.19041,0.143773 0.21462,0.428632 0.0712,0.784024 c 0,0 0.11867,0.239125 0.0954,0.382597 -0.0237,0.141386 -0.11956,0.284858 -0.11956,0.379909 0,0.09505 0.0717,0.451942 0.0717,0.547 0,0.09564 -0.21521,0.71617 -0.21521,0.71617 l -0.26064,0.428029 -0.21372,0.02394 c 0,0 0.046,0.452846 0.11807,0.452846 0.0712,0 0.28635,0.09415 0.47586,0.167084 0.19129,0.06965 0.50036,-0.04781 0.5721,-0.07266 0.0712,-0.02387 0.59571,-0.309367 0.59571,-0.309367 0,0 0.30937,-0.213713 0.40412,-0.190402 0.095,0.02394 0.52518,-0.04721 0.59512,0 0.0718,0.04781 0.61933,0.02394 0.61933,0.02394 l 0.33268,-0.35659 0.90568,-0.405313 0.45314,-0.04781 1.09369,-0.309065 0.929,0.09475 c 0,0 0.78672,0.572404 0.78672,0.524578 0,-0.04721 0.16648,0.309961 0.16648,0.309961 l -0.0472,0.451347 c 0,0 0.26123,0.214316 0.28455,0.143179 0.0246,-0.07175 0.28695,-0.357193 0.35869,-0.428632 0.0696,-0.07115 0.28604,-0.165894 0.45283,-0.284858 0.1656,-0.119559 0.21282,-0.190997 0.21282,-0.190997 0,0 -0.16589,0.475855 -0.23822,0.475855 -0.0712,0 -0.21521,0.142576 -0.28635,0.238229 -0.0711,0.09446 -0.18891,0.167385 -0.18891,0.215212 0,0.04631 0.14258,0.04631 0.21222,0 0.0727,-0.04781 0.1919,-0.191902 0.28844,-0.23972 0.0942,-0.04721 0.14318,-0.02334 0.11777,0.09565 -0.0233,0.118963 -0.0233,0.237031 -0.11777,0.284858 -0.0965,0.04781 -0.2158,0.118964 -0.38289,0.215211 -0.16499,0.09565 -0.28456,0.02304 -0.35659,0.09565 -0.0718,0.07175 0.0472,0.143772 0.0951,0.190402 0.0478,0.04781 0.16798,0.191299 0.26154,0.02455 0.0945,-0.167092 0.2164,-0.287546 0.28635,-0.333882 0.0712,-0.04661 0.21431,-0.191893 0.21431,-0.07266 0,0.119257 0.0727,0.239719 0.0951,0.335666 0.0249,0.09415 -0.16589,0.284557 -0.14317,0.331781 0.0246,0.04781 0.26363,0.57181 0.26363,0.57181 0,0 0.14258,0.189205 0.30817,0.189205 0.16709,0 0.52309,0.120161 0.59542,0.14497 0.07,0.02244 0.40532,0 0.45344,-0.09595 0.0478,-0.09564 0.33268,-0.286048 0.30936,-0.21491 -0.0245,0.07175 0.0233,0.21491 0.0945,0.286055 0.0711,0.07115 0.1904,0.26303 0.1904,0.26303 l 0.88147,-0.691963 c 0,0 0.66626,-0.14317 0.68987,-0.07115 0.0246,0.07115 0.45194,-0.475261 0.45194,-0.475261 l 1.35703,-1.666691 0.52607,-0.358088 0.38021,-0.547889 0.52308,-0.953804 0.28606,-1.068883 0.21461,-0.810031 -0.52398,-0.787013 -0.21222,-0.669548 z m -5.28762,8.883437 c 0,0 -0.33269,-0.214308 -0.38171,-0.285453 v -0.07175 l -0.23702,0.737395 -0.21372,0.787013 c 0,0 0.42743,0.04781 0.47526,0.07115 0.0478,0.02304 0.76279,-0.404417 0.78731,-0.500062 0.0233,-0.09565 0.49977,-0.881176 0.49977,-0.881176 0,0 -0.76221,0.164403 -0.9296,0.14049 z m 12.90669,-1.380936 -0.23852,-0.23972 c 0,0 0.0248,-0.332685 -0.0478,-0.332685 -0.0702,0 -0.1904,0.02394 -0.1904,0.02394 l 0.11986,-0.834539 -0.43072,-0.260945 -0.0939,1.285886 -0.31026,0.715876 -0.61753,0.238229 c 0,0 0.26154,0.260945 0.35659,0.260945 0.0945,0 -0.0718,0.285754 -0.0718,0.285754 l -0.40472,0.357487 c 0,0 -0.14198,-0.07206 -0.14198,-0.262436 0,-0.191005 -0.382,0.190402 -0.382,0.190402 l -0.26154,-0.167091 -0.71498,0.618137 -0.97593,0.50126 -2.28542,1.405744 0.30877,0.166497 c 0,0 0.28576,0.118964 0.30967,0.167084 0.023,0.04661 0.71408,-0.309961 0.71408,-0.309961 l 0.78642,-0.572403 0.37961,-0.332684 c 0,0 0.69196,-0.190395 0.66745,-0.09505 -0.0227,0.09505 0.21431,-0.452243 0.21431,-0.452243 l 0.66686,-0.357186 0.40532,-0.404123 0.33267,0.09356 0.47646,-0.166489 0.80973,-0.523381 0.14258,-0.429527 0.26304,0.02537 0.49857,-0.358089 0.33328,-0.571501 -0.60977,0.328792 z M 31.124268,16.796251 c 0.190403,0.06994 0.309065,0.09475 0.714679,0.118665 0.405019,0.02272 0.452846,-0.02391 0.642947,0.04693 0.188904,0.07054 0.356297,0.192196 0.42833,0.02302 0.07115,-0.165593 0.166489,-0.165593 0.237627,-0.261242 0.07115,-0.09505 0,-0.190403 0.11867,-0.237928 0.118964,-0.04722 0.333874,0.190999 0.333874,0.190999 0,0 -0.262443,0.166789 -0.143479,0.189506 0.11867,0.02481 0.452243,0.09565 0.619929,0.118665 0.166791,0.02481 0.02394,0.07144 0.309668,0.09774 0.285152,0.02242 0.404417,-0.02631 0.761007,-0.02631 0.357494,0 0.572999,-0.165295 0.691669,-0.118665 0.118663,0.04722 0.52308,0.04722 0.64175,0.02421 0.118964,-0.02421 0.406209,-0.285155 0.286349,-0.285155 -0.11986,0 -0.571809,-0.119861 -0.761911,-0.143175 -0.190101,-0.02361 -0.787013,-0.04753 -0.928098,0.02361 -0.144067,0.07174 -0.310564,0.11986 -0.405614,0.07174 -0.09505,-0.04753 0.405614,-0.428031 0.738298,-0.380804 0.333875,0.04753 0.833342,-0.04722 0.999831,-0.02361 0.166489,0.02361 0.572706,0.09505 0.572706,0.09505 0,0 0.09415,-0.04753 0.117766,-0.118665 0.02425,-0.07144 0.04811,-0.142876 0.04811,-0.142876 l 0.23853,0.214015 c 0,0 1.570745,-0.642345 1.643079,-0.762206 0.07145,-0.12016 1.070072,-0.428928 1.215043,-0.404119 0.142576,0.02272 1.117906,-0.405315 1.285886,-0.334175 0.164396,0.07144 1.046468,-0.213119 1.046468,-0.213119 0,0 0.643835,-0.143474 0.786712,-0.143474 0.143178,0 0.214015,-0.166191 0,-0.142577 -0.21491,0.02361 -2.001461,0.02361 -2.428895,0 -0.429821,-0.02361 -1.476884,-9.04e-4 -1.643373,0.02361 -0.16679,0.02391 -1.120301,0.285752 -1.524416,0.262438 -0.405313,-0.02421 -1.714217,0.165593 -1.785354,0.141979 -0.07236,-0.02391 -0.594819,-0.04753 -0.547,-0.04753 0.0463,0 -0.691963,0.595418 -0.810927,0.428031 -0.118663,-0.16649 0,-0.285454 -0.118663,-0.16649 -0.122548,0.118964 -0.09864,0.667155 -0.09864,0.667155 0.142584,0.09565 0.452243,0.428629 0.667161,0.286051 0.213119,-0.143175 0.332678,-0.07144 0.404116,-0.04842 0.07055,0.02422 -0.332685,0.333876 -0.571802,0.333876 -0.237928,0 -1.000433,0.285753 -1.000433,0.285753 0,0 -0.333581,-0.309666 -0.405019,-0.333279 -0.07115,-0.02391 -0.475261,-0.04753 -0.546692,-0.04753 -0.07115,0 -0.16679,-0.07114 -0.190402,0.142876 -0.02364,0.214015 0.02364,0.546995 -0.214022,0.499469 -0.238523,-0.04783 -0.309367,0.04722 -0.428925,-0.02332 -0.118964,-0.07174 0.167385,-0.428927 -0.167687,-0.45254 -0.333279,-0.02361 -0.52338,-0.261542 -0.713783,0.118665 -0.188309,0.380505 -0.304878,0.380505 -0.11358,0.453139 z m -8.6207,1.475093 c -0.07236,0.12016 0.617836,0.167387 0.66506,0.07264 0.04992,-0.09625 0.477648,-0.02481 0.572405,-0.166789 0.09505,-0.143175 0.570605,-0.429227 0.642043,-0.381701 0.07145,0.04812 -0.142576,0.285752 -0.214014,0.309964 -0.07145,0.02361 0.239426,0.04693 -0.07145,0.28635 -0.308764,0.23763 -0.237333,0.452542 -0.237333,0.452542 0,0 -0.261833,0.118665 -0.07145,0.16649 0.190395,0.04783 0.547294,0.214015 0.547294,0.214015 0,0 0.02364,0.16649 0.02364,0.214315 0,0.04753 0.11986,0.190401 0.380503,0.02391 0.263633,-0.166789 0.786713,-0.356593 0.858151,-0.285454 0.07115,0.07114 0.23853,-0.02391 0.477354,-0.04783 0.237032,-0.02332 0.42833,-0.09505 0.42833,-0.09505 l 0.309065,0.04783 c 0.143179,0.07114 0.262737,-0.09505 0.501862,0.04722 0.236731,0.142876 0.569415,0.142876 0.569415,0.142876 0,0 0.334176,-0.261541 0.405012,-0.285155 0.07176,-0.02391 0.214316,-0.04753 0.142877,-0.214314 -0.07115,-0.167087 -0.332978,-0.428629 -0.26154,-0.477649 0.07115,-0.04722 0.237627,-0.09505 0.214015,-0.546995 -0.02364,-0.451944 0.04751,-0.379908 -0.07145,-0.356594 -0.118663,0.02391 -0.405012,0.166789 -0.405012,0.166789 l -0.09445,-0.02391 c -0.04721,0.142577 -0.262142,0.237928 -0.311159,0.380805 -0.04721,0.142577 -0.187714,0.214015 -0.187714,0.09505 0,-0.118964 -0.167385,-0.143175 -0.192789,-0.238227 -0.02214,-0.09535 -0.237634,-0.07114 -0.356297,-0.04753 -0.119265,0.02361 -0.453139,-0.214315 -0.572404,-0.118964 -0.117767,0.09535 -0.238229,-0.04722 -0.33328,-0.261541 -0.09415,-0.214016 -0.214014,-0.381702 -0.356891,-0.358686 -0.142877,0.02481 -1.023744,0 -1.023744,0 l -0.523983,0.04753 c 0,0 -0.285152,0.07264 -0.285152,0.216108 0,0.142876 -0.04781,0.238227 -0.190403,0.285454 -0.143773,0.04753 -1.191137,0.42833 -1.191137,0.42833 0,0 0.286056,0.188908 0.214617,0.308171 z m 7.476795,-0.570608 -0.261841,-0.04783 c 0,0 -0.02364,-0.190401 -0.09475,-0.190401 -0.07386,0 -0.286357,0.26184 -0.286357,0.26184 0,0 0.310262,0.118964 0.357795,0.214314 0.04751,0.09535 0.166188,0.213717 0.166188,0.286051 0,0.07024 0.785523,-0.238525 0.785523,-0.238525 l 0.429821,-0.214314 c 0,0 0.02214,0.04753 0.04751,-0.07114 0.02394,-0.118963 -0.04751,-0.214015 0,-0.238226 0.04691,-0.02361 0.237627,-0.332681 0.04691,-0.285155 -0.190704,0.04663 -0.596016,0 -0.786118,0.07114 -0.190402,0.07144 -0.427735,-0.09445 -0.404123,0.09505 0.02214,0.190402 -0.0015,0.357191 -0.0015,0.357191 z m -3.810435,-1.095784 c 0,0 0.09505,0.405016 0.286349,0.286351 0.190101,-0.12016 0.737102,0.28635 0.737102,0.332681 0,0.04902 0.190101,0.02481 0.190101,0.02481 l 0.834539,-0.28665 0.465698,-0.07084 c 0,0 0.439391,-0.02481 0.510227,0.02391 0.07055,0.04693 0.429527,-0.118665 0.429527,-0.118665 l 0.142275,-0.239423 -0.309961,-0.09505 0.07236,-0.237928 c 0,0 -0.09595,-0.142876 -0.309366,0.02361 -0.215806,0.166788 -0.810332,0.499469 -0.7631,0.428927 0.04781,-0.07174 -0.237333,0.02331 -0.356598,-0.119861 -0.11986,-0.142278 -0.285747,-0.166489 -0.285747,-0.166489 0,0 -0.334778,-0.118665 -0.452544,-0.07114 -0.119559,0.04753 0.214014,-0.237928 0.214014,-0.237928 0,0 0.07145,-0.262139 -0.07266,-0.237928 -0.141379,0.02421 -1.308896,0.285752 -1.308896,0.285752 0,0 -0.50007,0.285454 -0.594827,0.213718 -0.09505,-0.07114 -0.451942,0.04753 -0.451942,0.04753 l 0.237927,0.142875 c 0.07115,-0.07144 0.785523,0.07174 0.785523,0.07174 z m 5.310034,-0.975923 c 0.07115,0.02302 0.643249,0.189805 0.714687,0.214015 0.07115,0.02422 0.286349,0.07144 0.379901,0.04783 0.09506,-0.02361 0.476458,-0.213716 0.334477,-0.285454 -0.143178,-0.07114 -0.595715,-0.168283 -0.691067,-0.216406 -0.09505,-0.04723 -0.452838,-0.06965 -0.452838,-0.06965 l -0.214316,0.04633 c -0.04781,0.07144 -0.143472,0.24002 -0.07176,0.263335 z m -2.286018,0.404717 c 0.09684,-0.04722 0.429527,-0.190403 0.429527,-0.190403 l 0.284256,-0.237628 0.09625,-0.120459 c 0,0 -0.214014,-0.189207 -0.309366,-0.119263 -0.09505,0.07144 -0.596611,0.286351 -0.596611,0.286351 l -0.02364,0.166789 -0.390668,0.167386 c 0,0 0.41428,0.09475 0.510227,0.04722 z m 4.288685,-0.07114 c 0.09385,0.02391 0.379901,0.02391 0.403814,-0.04783 0.02364,-0.07144 -0.02364,-0.572701 -0.02364,-0.572701 0,0 -0.09625,-0.141681 -0.214609,-0.118067 -0.118964,0.02361 -0.499475,0.213118 -0.499475,0.213118 -0.02394,0.07234 0.236135,0.501562 0.334777,0.525475 z m -6.015754,25.376987 c -0.01641,-0.05293 -0.285152,-0.140483 -0.427735,-0.140483 -0.142877,0 -0.661176,-0.501568 -0.695848,-0.608869 -0.03705,-0.107308 -1.196814,-0.392166 -1.196814,-0.392166 0,0 -1.268253,-0.07175 -1.268253,-0.106707 0,-0.03734 -0.607672,0.481834 -0.607672,0.481834 v 0.05323 c 0,0 0.05233,0.249583 0.07266,0.303388 0.01671,0.05323 0.410094,-0.286349 0.44567,-0.428624 0.03554,-0.142282 0.321022,-0.179048 0.392159,-0.214918 0.07266,-0.03471 0.107007,0.144375 0.178747,0.144375 0.07236,0 0.393657,0.106405 0.393657,0.106405 l 0.64294,0.214316 0.249884,0.231656 c 0,0 0.106714,0.570303 0.106714,0.642939 0,0.07206 0.482428,0.03471 0.482428,0.03471 l 0.946335,-0.08728 c -3.01e-4,-3.01e-4 0.304284,-0.179937 0.285152,-0.233741 z m -0.03441,1.197115 c 0.08818,0.03554 0.230752,-0.01762 0.303087,-0.01762 0.07236,0 0.304284,-0.05353 0.304284,-0.05353 0,0 0.07115,0.160812 0.07115,0.214616 0,0.05263 0.374533,-0.01852 0.374533,-0.07236 0,-0.05384 0.08937,-0.196079 0.08937,-0.196079 l 0.44567,-0.08908 c 0,0 0.608267,0.01792 0.661477,0.01792 0.05383,0 0.08967,-0.107007 -0.01852,-0.303388 -0.106112,-0.196976 -0.41099,-0.233741 -0.482429,-0.37692 -0.07145,-0.14168 -0.410094,-0.05112 -0.499769,0 -0.08907,0.05414 -0.588246,-0.123142 -0.732019,-0.123142 -0.14168,0 0,0.16051 0,0.16051 l -0.05376,0.517704 h -0.588841 l -0.01822,0.05323 c 0,0 -0.161114,0.05383 -0.161114,0.161105 6.03e-4,0.107015 0.214918,0.07145 0.305188,0.107015 z"
     inkscape:connector-curvature="0"
     style="fill:#cdd7e2" />
  <g
     style="font-size:16px;font-style:normal;font-weight:bold;text-align:end;line-height:125%;letter-spacing:0px;word-spacing:0px;text-anchor:end;fill:#000000;fill-opacity:1;stroke:none;font-family:Sans;-inkscape-font-specification:Sans Bold"
     id="text2994"
     transform="translate(15.53906,11.505466)">
    <path
       d="m 31.625,85.3536 3.007812,0 0,11.664062 -3.007812,0 0,-11.664062"
       id="path3001"
       inkscape:connector-curvature="0" />
    <path
       d="m 45.710937,85.720787 0,2.46875 c -0.640633,-0.286449 -1.265633,-0.502595 -1.875,-0.648437 -0.609382,-0.145824 -1.184902,-0.218741 -1.726562,-0.21875 -0.718755,9e-6 -1.250005,0.09897 -1.59375,0.296875 C 40.171871,87.81715 39.999996,88.124442 40,88.5411 c -4e-6,0.312508 0.114579,0.557299 0.34375,0.734375 0.234371,0.171882 0.656245,0.320319 1.265625,0.445312 l 1.28125,0.257813 c 1.296867,0.260423 2.218741,0.656256 2.765625,1.1875 0.546865,0.531255 0.820302,1.286462 0.820312,2.265625 -1e-5,1.28646 -0.382822,2.244793 -1.148437,2.875 -0.760425,0.625 -1.924486,0.937499 -3.492188,0.9375 -0.739588,-10e-7 -1.481775,-0.07031 -2.226562,-0.210938 -0.744794,-0.140625 -1.489585,-0.348958 -2.234375,-0.625 l 0,-2.539062 c 0.74479,0.395836 1.463539,0.695315 2.15625,0.898437 0.697913,0.197919 1.369787,0.296877 2.015625,0.296875 0.656244,2e-6 1.158848,-0.109373 1.507812,-0.328125 0.348952,-0.218747 0.523431,-0.531247 0.523438,-0.9375 -7e-6,-0.36458 -0.119799,-0.645829 -0.359375,-0.84375 -0.234382,-0.197912 -0.705736,-0.374996 -1.414063,-0.53125 L 40.640625,92.1661 c -1.16667,-0.249995 -2.020836,-0.648432 -2.5625,-1.195313 -0.53646,-0.546868 -0.804689,-1.283847 -0.804688,-2.210937 -1e-6,-1.161449 0.374999,-2.054678 1.125,-2.679688 0.749997,-0.624988 1.828121,-0.937488 3.234375,-0.9375 0.640619,1.2e-5 1.299473,0.04949 1.976563,0.148438 0.677075,0.09376 1.377595,0.23699 2.101562,0.429687"
       id="path3003"
       inkscape:connector-curvature="0" />
    <path
       d="m 54.453125,87.32235 c -0.916673,9e-6 -1.627609,0.338551 -2.132813,1.015625 -0.505212,0.677091 -0.757816,1.630215 -0.757812,2.859375 -4e-6,1.223962 0.2526,2.174482 0.757812,2.851562 0.505204,0.677086 1.21614,1.015627 2.132813,1.015625 0.921867,2e-6 1.635408,-0.338539 2.140625,-1.015625 0.505199,-0.67708 0.757803,-1.6276 0.757812,-2.851562 -9e-6,-1.22916 -0.252613,-2.182284 -0.757812,-2.859375 -0.505217,-0.677074 -1.218758,-1.015616 -2.140625,-1.015625 m 0,-2.179688 c 1.874991,1.2e-5 3.34374,0.53647 4.40625,1.609375 1.062488,1.072926 1.593737,2.554695 1.59375,4.445313 -1.3e-5,1.88542 -0.531262,3.364585 -1.59375,4.4375 -1.06251,1.072917 -2.531259,1.609374 -4.40625,1.609375 -1.869797,-10e-7 -3.338545,-0.536458 -4.40625,-1.609375 -1.062501,-1.072915 -1.593751,-2.55208 -1.59375,-4.4375 -10e-7,-1.890618 0.531249,-3.372387 1.59375,-4.445313 1.067705,-1.072905 2.536453,-1.609363 4.40625,-1.609375"
       id="path3005"
       inkscape:connector-curvature="0" />
    <path
       d="m 74.265625,90.7286 c 0.78645,0.203131 1.382804,0.557297 1.789062,1.0625 0.411449,0.500004 0.617178,1.138024 0.617188,1.914062 -1e-5,1.156252 -0.442718,2.03646 -1.328125,2.640625 -0.885424,0.598958 -2.17709,0.898437 -3.875,0.898438 -0.598962,-10e-7 -1.200524,-0.04948 -1.804688,-0.148438 -0.59896,-0.09375 -1.192709,-0.236979 -1.78125,-0.429687 l 0,-2.320313 c 0.562499,0.281252 1.11979,0.494794 1.671875,0.640625 0.557289,0.140627 1.104163,0.210939 1.640625,0.210938 0.79687,10e-7 1.406245,-0.138019 1.828125,-0.414063 0.427077,-0.276039 0.640619,-0.671872 0.640625,-1.1875 -6e-6,-0.531246 -0.218756,-0.932287 -0.65625,-1.203125 -0.432297,-0.276037 -1.072921,-0.414057 -1.921875,-0.414062 l -1.203125,0 0,-1.9375 1.265625,0 c 0.755204,7e-6 1.317703,-0.117181 1.6875,-0.351563 0.369786,-0.239576 0.554681,-0.601555 0.554688,-1.085937 -7e-6,-0.447908 -0.179694,-0.794262 -0.539063,-1.039063 -0.35938,-0.244782 -0.867192,-0.367178 -1.523437,-0.367187 -0.484379,9e-6 -0.973962,0.0547 -1.46875,0.164062 -0.494794,0.109385 -0.986981,0.270843 -1.476563,0.484375 l 0,-2.203125 c 0.593748,-0.166655 1.182289,-0.291655 1.765625,-0.375 0.58333,-0.08332 1.156246,-0.124988 1.71875,-0.125 1.515619,1.2e-5 2.64843,0.250012 3.398438,0.75 0.755199,0.494802 1.132803,1.242197 1.132812,2.242188 -9e-6,0.682299 -0.179696,1.242195 -0.539062,1.679687 -0.359384,0.432298 -0.890633,0.736986 -1.59375,0.914063"
       id="path3007"
       inkscape:connector-curvature="0" />
    <path
       d="m 79.8125,94.939537 2.65625,0 0,-7.539062 -2.726563,0.5625 0,-2.046875 2.710938,-0.5625 2.859375,0 0,9.585937 2.65625,0 0,2.078125 -8.15625,0 0,-2.078125"
       id="path3009"
       inkscape:connector-curvature="0" />
    <path
       d="m 94.851562,91.25985 c -0.526046,5e-6 -0.921879,0.17188 -1.1875,0.515625 -0.260421,0.338546 -0.390629,0.848962 -0.390625,1.53125 -4e-6,0.682294 0.130204,1.195315 0.390625,1.539062 0.265621,0.338544 0.661454,0.507814 1.1875,0.507813 0.531244,10e-7 0.927077,-0.169269 1.1875,-0.507813 0.265618,-0.343747 0.398431,-0.856768 0.398438,-1.539062 -7e-6,-0.682288 -0.13282,-1.192704 -0.398438,-1.53125 -0.260423,-0.343745 -0.656256,-0.51562 -1.1875,-0.515625 m 3.71875,-5.601563 0,2.15625 c -0.4948,-0.234366 -0.960946,-0.40624 -1.398437,-0.515625 -0.437508,-0.114573 -0.864591,-0.171865 -1.28125,-0.171875 -0.895839,1e-5 -1.593755,0.25001 -2.09375,0.75 -0.500004,0.4948 -0.791671,1.231779 -0.875,2.210938 0.343746,-0.255202 0.716141,-0.445306 1.117187,-0.570313 0.401037,-0.130201 0.838536,-0.195305 1.3125,-0.195312 1.192701,7e-6 2.153638,0.348965 2.882813,1.046875 0.734365,0.697922 1.101552,1.611984 1.101562,2.742187 -1e-5,1.250003 -0.408864,2.252606 -1.226562,3.007813 -0.817717,0.75 -1.91407,1.124999 -3.289063,1.125 -1.515629,-10e-7 -2.690107,-0.510417 -3.523437,-1.53125 -0.828126,-1.02604 -1.242188,-2.479163 -1.242188,-4.359375 0,-1.927076 0.484374,-3.440096 1.453125,-4.539063 0.973955,-1.104155 2.307287,-1.656238 4,-1.65625 0.536452,1.2e-5 1.057285,0.04168 1.5625,0.125 0.5052,0.08334 1.0052,0.208345 1.5,0.375"
       id="path3011"
       inkscape:connector-curvature="0" />
    <path
       d="m 105.97656,91.25985 c -0.52604,5e-6 -0.92188,0.17188 -1.1875,0.515625 -0.26042,0.338546 -0.39063,0.848962 -0.39062,1.53125 -10e-6,0.682294 0.1302,1.195315 0.39062,1.539062 0.26562,0.338544 0.66146,0.507814 1.1875,0.507813 0.53125,10e-7 0.92708,-0.169269 1.1875,-0.507813 0.26562,-0.343747 0.39843,-0.856768 0.39844,-1.539062 -1e-5,-0.682288 -0.13282,-1.192704 -0.39844,-1.53125 -0.26042,-0.343745 -0.65625,-0.51562 -1.1875,-0.515625 m 3.71875,-5.601563 0,2.15625 c -0.4948,-0.234366 -0.96094,-0.40624 -1.39843,-0.515625 -0.43751,-0.114573 -0.8646,-0.171865 -1.28125,-0.171875 -0.89584,1e-5 -1.59376,0.25001 -2.09375,0.75 -0.50001,0.4948 -0.79168,1.231779 -0.875,2.210938 0.34374,-0.255202 0.71614,-0.445306 1.11718,-0.570313 0.40104,-0.130201 0.83854,-0.195305 1.3125,-0.195312 1.1927,7e-6 2.15364,0.348965 2.88282,1.046875 0.73436,0.697922 1.10155,1.611984 1.10156,2.742187 -10e-6,1.250003 -0.40887,2.252606 -1.22656,3.007813 -0.81772,0.75 -1.91407,1.124999 -3.28907,1.125 -1.51563,-10e-7 -2.6901,-0.510417 -3.52343,-1.53125 -0.82813,-1.02604 -1.24219,-2.479163 -1.24219,-4.359375 0,-1.927076 0.48437,-3.440096 1.45312,-4.539063 0.97396,-1.104155 2.30729,-1.656238 4,-1.65625 0.53645,1.2e-5 1.05729,0.04168 1.5625,0.125 0.5052,0.08334 1.0052,0.208345 1.5,0.375"
       id="path3013"
       inkscape:connector-curvature="0" />
  </g>
</svg>
