<?xml version="1.0" encoding="utf-8"?>
<!DOCTYPE svg PUBLIC "-//W3C//DTD SVG 20010904//EN" "http://www.w3.org/TR/2001/REC-SVG-20010904/DTD/svg10.dtd">
<svg xmlns="http://www.w3.org/2000/svg" xml:space="preserve" xmlns:xlink="http://www.w3.org/1999/xlink" width="356" height="81.587" viewBox="0 0 356 81.587">
<desc></desc>
<rect x="0" y="0" width="356" height="81.587" style="fill:#ffffff;" />
<line fill="none" style="stroke:#000000; stroke-width:4;" x1="2" y1="0" x2="2" y2="60"/>
<line fill="none" style="stroke:#000000; stroke-width:2;" x1="7" y1="0" x2="7" y2="60"/>
<line fill="none" style="stroke:#000000; stroke-width:2;" x1="13" y1="0" x2="13" y2="60"/>
<line fill="none" style="stroke:#000000; stroke-width:2;" x1="23" y1="0" x2="23" y2="60"/>
<line fill="none" style="stroke:#000000; stroke-width:6;" x1="33" y1="0" x2="33" y2="60"/>
<line fill="none" style="stroke:#000000; stroke-width:4;" x1="40" y1="0" x2="40" y2="60"/>
<line fill="none" style="stroke:#000000; stroke-width:2;" x1="45" y1="0" x2="45" y2="60"/>
<line fill="none" style="stroke:#000000; stroke-width:4;" x1="52" y1="0" x2="52" y2="60"/>
<line fill="none" style="stroke:#000000; stroke-width:6;" x1="59" y1="0" x2="59" y2="60"/>
<line fill="none" style="stroke:#000000; stroke-width:2;" x1="67" y1="0" x2="67" y2="60"/>
<line fill="none" style="stroke:#000000; stroke-width:2;" x1="75" y1="0" x2="75" y2="60"/>
<line fill="none" style="stroke:#000000; stroke-width:4;" x1="80" y1="0" x2="80" y2="60"/>
<line fill="none" style="stroke:#000000; stroke-width:4;" x1="90" y1="0" x2="90" y2="60"/>
<line fill="none" style="stroke:#000000; stroke-width:6;" x1="97" y1="0" x2="97" y2="60"/>
<line fill="none" style="stroke:#000000; stroke-width:2;" x1="107" y1="0" x2="107" y2="60"/>
<line fill="none" style="stroke:#000000; stroke-width:2;" x1="111" y1="0" x2="111" y2="60"/>
<line fill="none" style="stroke:#000000; stroke-width:6;" x1="117" y1="0" x2="117" y2="60"/>
<line fill="none" style="stroke:#000000; stroke-width:4;" x1="128" y1="0" x2="128" y2="60"/>
<line fill="none" style="stroke:#000000; stroke-width:2;" x1="133" y1="0" x2="133" y2="60"/>
<line fill="none" style="stroke:#000000; stroke-width:4;" x1="140" y1="0" x2="140" y2="60"/>
<line fill="none" style="stroke:#000000; stroke-width:6;" x1="149" y1="0" x2="149" y2="60"/>
<line fill="none" style="stroke:#000000; stroke-width:2;" x1="155" y1="0" x2="155" y2="60"/>
<line fill="none" style="stroke:#000000; stroke-width:2;" x1="161" y1="0" x2="161" y2="60"/>
<line fill="none" style="stroke:#000000; stroke-width:8;" x1="170" y1="0" x2="170" y2="60"/>
<line fill="none" style="stroke:#000000; stroke-width:2;" x1="177" y1="0" x2="177" y2="60"/>
<line fill="none" style="stroke:#000000; stroke-width:4;" x1="182" y1="0" x2="182" y2="60"/>
<line fill="none" style="stroke:#000000; stroke-width:2;" x1="189" y1="0" x2="189" y2="60"/>
<line fill="none" style="stroke:#000000; stroke-width:4;" x1="200" y1="0" x2="200" y2="60"/>
<line fill="none" style="stroke:#000000; stroke-width:2;" x1="207" y1="0" x2="207" y2="60"/>
<line fill="none" style="stroke:#000000; stroke-width:2;" x1="211" y1="0" x2="211" y2="60"/>
<line fill="none" style="stroke:#000000; stroke-width:2;" x1="221" y1="0" x2="221" y2="60"/>
<line fill="none" style="stroke:#000000; stroke-width:4;" x1="226" y1="0" x2="226" y2="60"/>
<line fill="none" style="stroke:#000000; stroke-width:2;" x1="233" y1="0" x2="233" y2="60"/>
<line fill="none" style="stroke:#000000; stroke-width:2;" x1="243" y1="0" x2="243" y2="60"/>
<line fill="none" style="stroke:#000000; stroke-width:2;" x1="249" y1="0" x2="249" y2="60"/>
<line fill="none" style="stroke:#000000; stroke-width:4;" x1="254" y1="0" x2="254" y2="60"/>
<line fill="none" style="stroke:#000000; stroke-width:2;" x1="265" y1="0" x2="265" y2="60"/>
<line fill="none" style="stroke:#000000; stroke-width:8;" x1="272" y1="0" x2="272" y2="60"/>
<line fill="none" style="stroke:#000000; stroke-width:2;" x1="281" y1="0" x2="281" y2="60"/>
<line fill="none" style="stroke:#000000; stroke-width:2;" x1="287" y1="0" x2="287" y2="60"/>
<line fill="none" style="stroke:#000000; stroke-width:4;" x1="292" y1="0" x2="292" y2="60"/>
<line fill="none" style="stroke:#000000; stroke-width:2;" x1="299" y1="0" x2="299" y2="60"/>
<line fill="none" style="stroke:#000000; stroke-width:2;" x1="309" y1="0" x2="309" y2="60"/>
<line fill="none" style="stroke:#000000; stroke-width:4;" x1="318" y1="0" x2="318" y2="60"/>
<line fill="none" style="stroke:#000000; stroke-width:2;" x1="327" y1="0" x2="327" y2="60"/>
<line fill="none" style="stroke:#000000; stroke-width:4;" x1="332" y1="0" x2="332" y2="60"/>
<line fill="none" style="stroke:#000000; stroke-width:6;" x1="343" y1="0" x2="343" y2="60"/>
<line fill="none" style="stroke:#000000; stroke-width:2;" x1="349" y1="0" x2="349" y2="60"/>
<line fill="none" style="stroke:#000000; stroke-width:4;" x1="354" y1="0" x2="354" y2="60"/>
<text x="178" y="77.271" text-anchor="middle" style="font-family: Tahoma; font-size: 20px; stroke: none; fill:#000000;">O-BTN.release</text></svg>
