<?xml version="1.0" encoding="utf-8"?>
<!DOCTYPE svg PUBLIC "-//W3C//DTD SVG 20010904//EN" "http://www.w3.org/TR/2001/REC-SVG-20010904/DTD/svg10.dtd">
<svg xmlns="http://www.w3.org/2000/svg" xml:space="preserve" xmlns:xlink="http://www.w3.org/1999/xlink" width="290" height="81.587" viewBox="0 0 290 81.587">
<desc></desc>
<rect x="0" y="0" width="290" height="81.587" style="fill:#ffffff;" />
<line fill="none" style="stroke:#000000; stroke-width:4;" x1="2" y1="0" x2="2" y2="60"/>
<line fill="none" style="stroke:#000000; stroke-width:2;" x1="7" y1="0" x2="7" y2="60"/>
<line fill="none" style="stroke:#000000; stroke-width:2;" x1="13" y1="0" x2="13" y2="60"/>
<line fill="none" style="stroke:#000000; stroke-width:2;" x1="23" y1="0" x2="23" y2="60"/>
<line fill="none" style="stroke:#000000; stroke-width:6;" x1="33" y1="0" x2="33" y2="60"/>
<line fill="none" style="stroke:#000000; stroke-width:4;" x1="40" y1="0" x2="40" y2="60"/>
<line fill="none" style="stroke:#000000; stroke-width:2;" x1="45" y1="0" x2="45" y2="60"/>
<line fill="none" style="stroke:#000000; stroke-width:4;" x1="52" y1="0" x2="52" y2="60"/>
<line fill="none" style="stroke:#000000; stroke-width:6;" x1="59" y1="0" x2="59" y2="60"/>
<line fill="none" style="stroke:#000000; stroke-width:2;" x1="67" y1="0" x2="67" y2="60"/>
<line fill="none" style="stroke:#000000; stroke-width:2;" x1="75" y1="0" x2="75" y2="60"/>
<line fill="none" style="stroke:#000000; stroke-width:4;" x1="80" y1="0" x2="80" y2="60"/>
<line fill="none" style="stroke:#000000; stroke-width:4;" x1="90" y1="0" x2="90" y2="60"/>
<line fill="none" style="stroke:#000000; stroke-width:6;" x1="97" y1="0" x2="97" y2="60"/>
<line fill="none" style="stroke:#000000; stroke-width:2;" x1="107" y1="0" x2="107" y2="60"/>
<line fill="none" style="stroke:#000000; stroke-width:2;" x1="111" y1="0" x2="111" y2="60"/>
<line fill="none" style="stroke:#000000; stroke-width:6;" x1="117" y1="0" x2="117" y2="60"/>
<line fill="none" style="stroke:#000000; stroke-width:4;" x1="128" y1="0" x2="128" y2="60"/>
<line fill="none" style="stroke:#000000; stroke-width:2;" x1="133" y1="0" x2="133" y2="60"/>
<line fill="none" style="stroke:#000000; stroke-width:4;" x1="140" y1="0" x2="140" y2="60"/>
<line fill="none" style="stroke:#000000; stroke-width:6;" x1="149" y1="0" x2="149" y2="60"/>
<line fill="none" style="stroke:#000000; stroke-width:2;" x1="155" y1="0" x2="155" y2="60"/>
<line fill="none" style="stroke:#000000; stroke-width:8;" x1="162" y1="0" x2="162" y2="60"/>
<line fill="none" style="stroke:#000000; stroke-width:2;" x1="171" y1="0" x2="171" y2="60"/>
<line fill="none" style="stroke:#000000; stroke-width:2;" x1="177" y1="0" x2="177" y2="60"/>
<line fill="none" style="stroke:#000000; stroke-width:2;" x1="183" y1="0" x2="183" y2="60"/>
<line fill="none" style="stroke:#000000; stroke-width:4;" x1="188" y1="0" x2="188" y2="60"/>
<line fill="none" style="stroke:#000000; stroke-width:8;" x1="202" y1="0" x2="202" y2="60"/>
<line fill="none" style="stroke:#000000; stroke-width:2;" x1="209" y1="0" x2="209" y2="60"/>
<line fill="none" style="stroke:#000000; stroke-width:2;" x1="215" y1="0" x2="215" y2="60"/>
<line fill="none" style="stroke:#000000; stroke-width:2;" x1="221" y1="0" x2="221" y2="60"/>
<line fill="none" style="stroke:#000000; stroke-width:4;" x1="226" y1="0" x2="226" y2="60"/>
<line fill="none" style="stroke:#000000; stroke-width:2;" x1="233" y1="0" x2="233" y2="60"/>
<line fill="none" style="stroke:#000000; stroke-width:2;" x1="243" y1="0" x2="243" y2="60"/>
<line fill="none" style="stroke:#000000; stroke-width:4;" x1="248" y1="0" x2="248" y2="60"/>
<line fill="none" style="stroke:#000000; stroke-width:2;" x1="259" y1="0" x2="259" y2="60"/>
<line fill="none" style="stroke:#000000; stroke-width:4;" x1="266" y1="0" x2="266" y2="60"/>
<line fill="none" style="stroke:#000000; stroke-width:6;" x1="277" y1="0" x2="277" y2="60"/>
<line fill="none" style="stroke:#000000; stroke-width:2;" x1="283" y1="0" x2="283" y2="60"/>
<line fill="none" style="stroke:#000000; stroke-width:4;" x1="288" y1="0" x2="288" y2="60"/>
<text x="145" y="77.271" text-anchor="middle" style="font-family: Tahoma; font-size: 20px; stroke: none; fill:#000000;">O-BTN.save</text></svg>
