<svg xmlns="http://www.w3.org/2000/svg" width="510" height="144">
    <svg id="barcodeSVG" role="img" aria-label="Barcode preview" width="508px" height="142px"
        x="0px" y="0px" viewBox="0 0 508 142" xmlns="http://www.w3.org/2000/svg" version="1.1"
        style="transform: translate(0,0)">
        <rect x="0" y="0" width="508" height="142" style="fill:#ffffff;" />
        <g transform="translate(10, 10)" style="fill:#000000;">
            <rect x="0" y="0" width="4" height="100" />
            <rect x="6" y="0" width="2" height="100" />
            <rect x="12" y="0" width="2" height="100" />
            <rect x="22" y="0" width="2" height="100" />
            <rect x="30" y="0" width="6" height="100" />
            <rect x="38" y="0" width="4" height="100" />
            <rect x="44" y="0" width="2" height="100" />
            <rect x="52" y="0" width="2" height="100" />
            <rect x="56" y="0" width="4" height="100" />
            <rect x="66" y="0" width="4" height="100" />
            <rect x="72" y="0" width="6" height="100" />
            <rect x="84" y="0" width="2" height="100" />
            <rect x="88" y="0" width="2" height="100" />
            <rect x="92" y="0" width="8" height="100" />
            <rect x="104" y="0" width="2" height="100" />
            <rect x="110" y="0" width="2" height="100" />
            <rect x="116" y="0" width="2" height="100" />
            <rect x="120" y="0" width="4" height="100" />
            <rect x="132" y="0" width="8" height="100" />
            <rect x="142" y="0" width="2" height="100" />
            <rect x="148" y="0" width="2" height="100" />
            <rect x="154" y="0" width="2" height="100" />
            <rect x="158" y="0" width="4" height="100" />
            <rect x="166" y="0" width="2" height="100" />
            <rect x="176" y="0" width="2" height="100" />
            <rect x="182" y="0" width="4" height="100" />
            <rect x="188" y="0" width="6" height="100" />
            <rect x="198" y="0" width="2" height="100" />
            <rect x="204" y="0" width="2" height="100" />
            <rect x="208" y="0" width="4" height="100" />
            <rect x="220" y="0" width="4" height="100" />
            <rect x="232" y="0" width="2" height="100" />
            <rect x="236" y="0" width="2" height="100" />
            <rect x="242" y="0" width="2" height="100" />
            <rect x="252" y="0" width="2" height="100" />
            <rect x="258" y="0" width="4" height="100" />
            <rect x="264" y="0" width="2" height="100" />
            <rect x="270" y="0" width="4" height="100" />
            <rect x="276" y="0" width="6" height="100" />
            <rect x="286" y="0" width="2" height="100" />
            <rect x="292" y="0" width="2" height="100" />
            <rect x="298" y="0" width="8" height="100" />
            <rect x="308" y="0" width="2" height="100" />
            <rect x="312" y="0" width="4" height="100" />
            <rect x="320" y="0" width="2" height="100" />
            <rect x="330" y="0" width="4" height="100" />
            <rect x="338" y="0" width="2" height="100" />
            <rect x="342" y="0" width="2" height="100" />
            <rect x="352" y="0" width="2" height="100" />
            <rect x="356" y="0" width="4" height="100" />
            <rect x="364" y="0" width="2" height="100" />
            <rect x="374" y="0" width="2" height="100" />
            <rect x="380" y="0" width="2" height="100" />
            <rect x="384" y="0" width="4" height="100" />
            <rect x="396" y="0" width="2" height="100" />
            <rect x="400" y="0" width="8" height="100" />
            <rect x="412" y="0" width="2" height="100" />
            <rect x="418" y="0" width="2" height="100" />
            <rect x="422" y="0" width="4" height="100" />
            <rect x="430" y="0" width="2" height="100" />
            <rect x="440" y="0" width="6" height="100" />
            <rect x="448" y="0" width="2" height="100" />
            <rect x="454" y="0" width="4" height="100" />
            <rect x="462" y="0" width="4" height="100" />
            <rect x="472" y="0" width="6" height="100" />
            <rect x="480" y="0" width="2" height="100" />
            <rect x="484" y="0" width="4" height="100" />
            <text style="font: 20px Roboto" text-anchor="middle" x="244" y="122">OBTsave-and-release</text>
        </g>
    </svg>
</svg>